<svg width="120" height="82" viewBox="0 0 120 82" fill="none" xmlns="http://www.w3.org/2000/svg">
<g clip-path="url(#clip0_63_14709)">
<mask id="mask0_63_14709" style="mask-type:luminance" maskUnits="userSpaceOnUse" x="1" y="2" width="113" height="48">
<path d="M56.5096 44.3474C52.3398 44.0303 40.4088 42.3775 25.2114 33.7603C23.6434 32.82 22.125 31.8196 20.6322 30.8083C15.8529 27.572 10.967 24.1553 7.60511 19.9041C7.14608 19.3246 6.72929 18.7251 6.36758 18.1037C6.01872 17.5079 5.71944 16.8847 5.62579 16.2341C5.2751 13.8507 8.06781 13.0234 10.3813 12.2781C14.2316 11.039 18.3408 10.2846 22.4004 9.61581C22.4004 9.61581 37.3242 6.64741 57.4497 6.54173C77.577 6.64741 92.5008 9.61581 92.5008 9.61581C96.5604 10.2846 100.67 11.0408 104.52 12.2781C106.833 13.0234 109.624 13.8507 109.275 16.2341C109.18 16.8847 108.881 17.5079 108.534 18.1037C108.17 18.7251 107.755 19.3246 107.294 19.9041C103.934 24.1553 99.0483 27.572 94.2689 30.8083C92.7743 31.8214 91.2577 32.82 89.686 33.7603C74.4905 42.3775 62.5595 44.0321 58.3916 44.3474C58.0776 44.3711 57.7636 44.382 57.4515 44.382C57.1394 44.382 56.8254 44.3711 56.5132 44.3474M19.4534 6.22648C15.0578 7.06288 10.6053 8.00861 6.43551 9.55932C3.92924 10.4905 0.905188 11.5255 1.28526 14.5067C1.38992 15.3212 1.71123 16.1011 2.08947 16.8482C2.4824 17.6227 2.93408 18.3734 3.43166 19.0987C7.07448 24.4159 12.3624 28.689 17.5402 32.738C19.1578 34.0044 20.8011 35.2545 22.5014 36.4316C38.9601 47.2101 51.8826 49.2801 56.3994 49.6755C57.0788 49.7357 57.7581 49.7357 58.4356 49.6755C62.9506 49.2801 75.8731 47.2101 92.3337 36.4316C94.0321 35.2545 95.6754 34.0044 97.2948 32.738C102.473 28.689 107.761 24.4141 111.402 19.0987C111.899 18.3734 112.351 17.6227 112.744 16.8482C113.12 16.1011 113.443 15.3212 113.548 14.5067C113.926 11.5273 110.902 10.4923 108.398 9.55932C104.228 8.00861 99.7754 7.0647 95.3779 6.22648C95.3779 6.22648 79.2148 2.51279 57.4148 2.38159C35.6166 2.51461 19.4534 6.22648 19.4534 6.22648Z" fill="white"/>
</mask>
<g mask="url(#mask0_63_14709)">
<path d="M113.926 2.38159H0.907028V49.7339H113.926V2.38159Z" fill="url(#paint0_linear_63_14709)"/>
</g>
<mask id="mask1_63_14709" style="mask-type:luminance" maskUnits="userSpaceOnUse" x="0" y="0" width="116" height="53">
<path d="M39.8764 20.7223H60.9052L57.356 28.9569C56.2287 31.5718 56.4986 34.5475 58.0794 36.92C59.6603 39.2926 62.3135 40.7103 65.1815 40.7103H80.4284L80.3862 40.7303C69.9682 45.4954 62.117 46.6325 58.8708 46.904C58.23 46.9568 57.5874 46.9568 56.9466 46.904C53.6398 46.6288 45.5664 45.4572 34.8675 40.4716L32.5283 39.3764L31.8453 39.0101L34.6251 32.5303H49.5196L52.6648 25.3854H37.7704L39.8782 20.7205L39.8764 20.7223ZM27.9142 36.7706C27.6902 36.6431 27.4643 36.5064 27.2403 36.377L33.685 21.679C35.3669 17.8578 37.9044 16.0775 41.6666 16.0775H87.6149L86.7262 18.0947H72.5644C70.2399 18.0947 68.3139 19.0677 66.99 20.8681L66.5696 21.4931C66.3823 21.8047 66.2097 22.14 66.0536 22.4899L62.8166 29.6457C62.0105 31.4771 62.0179 33.0369 62.8368 34.2796C63.3821 35.1069 64.515 36.0928 66.8101 36.0928L89.104 36.0709C87.9619 36.7433 86.7795 37.5123 85.6797 38.1027H65.2733C63.2462 38.1027 61.445 37.1405 60.3287 35.4659C59.2123 33.7895 59.0287 31.7686 59.8237 29.9227L63.8081 20.6786L64.9134 18.1111H62.1023L41.4591 18.1147C39.5238 18.1147 37.774 19.2518 37.001 21.0084L33.9109 27.9037H48.8053L47.9166 29.9227H33.0167L29.6548 37.7364L27.9124 36.7706H27.9142ZM24.9856 35.0249C23.379 33.9717 21.8239 32.8565 20.2944 31.7249C19.4222 31.0816 18.5501 30.4311 17.6816 29.7715C16.4514 28.8239 16.4257 28.8385 16.0089 28.4759C12.6048 25.7917 9.3898 22.898 6.95513 19.5397C6.48509 18.891 6.05912 18.2222 5.68823 17.528C5.33202 16.861 5.02356 16.1649 4.92808 15.436C4.57004 12.7738 7.42885 11.8481 9.79741 11.0172C13.7395 9.63044 17.9497 8.78676 22.1066 8.03964C22.1066 8.03964 37.3903 4.7232 58.0023 4.60476C78.6125 4.7232 93.8962 8.03964 93.8962 8.03964C98.0531 8.78676 102.261 9.63227 106.204 11.0172C108.574 11.8499 111.433 12.7738 111.075 15.436C110.976 16.1649 110.669 16.861 110.315 17.528C109.942 18.2222 109.516 18.8928 109.046 19.5397C107.619 21.5095 105.919 23.3172 104.074 25.0209C103.325 25.6952 103.468 25.564 102.759 26.1963C102.059 26.8031 101.345 27.3953 100.618 27.9784C99.399 28.966 98.9087 29.3214 98.9087 29.3214C97.8475 30.1377 96.7752 30.9377 95.7066 31.7267C94.8785 32.3408 94.1018 32.8073 93.2554 33.4032L93.092 33.5088L66.8119 33.5307C64.8895 33.5307 64.3497 32.5777 65.1888 30.6716L68.424 23.5158C69.2631 21.6116 70.642 20.6585 72.5663 20.6585H88.421L91.568 13.5136H41.6684C36.8633 13.5136 33.4115 15.8952 31.3146 20.6585L25.0076 35.0395C25.0076 35.0395 24.993 35.0304 24.9856 35.0268M18.9944 4.2968C14.4923 5.2316 9.93145 6.28849 5.66252 8.02142C3.09749 9.06373 -4.08292e-06 10.2208 0.387412 13.55C0.493906 14.4612 0.824404 15.334 1.21182 16.1668C1.61393 17.0323 2.07479 17.8724 2.58522 18.6832C5.0713 22.6429 8.30834 26.0869 11.762 29.2831C12.2045 29.6913 12.647 30.0958 13.095 30.4985C14.3968 31.6666 15.7207 32.8055 17.0353 33.9261C18.6951 35.342 20.377 36.7378 22.1176 38.0553C38.9748 50.102 52.2076 52.4126 56.8327 52.8554C57.5268 52.9228 58.2245 52.9228 58.9167 52.8554C63.5437 52.4126 76.7764 50.102 93.6336 38.0553C95.3743 36.7378 97.0561 35.342 98.7141 33.9261C100.458 32.4392 102.214 30.9213 103.919 29.3451C104.356 28.9424 104.788 28.5342 105.216 28.1224C105.607 27.7452 105.996 27.368 106.38 26.9853C106.708 26.6536 107.035 26.3202 107.358 25.9849C109.52 23.7272 111.508 21.32 113.162 18.6832C113.671 17.8724 114.134 17.0323 114.536 16.1668C114.923 15.334 115.256 14.4612 115.36 13.55C115.748 10.2208 112.652 9.06373 110.085 8.02142C105.816 6.28849 101.257 5.23342 96.7532 4.2968C96.7532 4.2968 80.1989 0.1476 57.8738 0C35.5469 0.1476 18.9944 4.2968 18.9944 4.2968Z" fill="white"/>
</mask>
<g mask="url(#mask1_63_14709)">
<path d="M115.746 0H0V52.9738H115.746V0Z" fill="url(#paint1_linear_63_14709)"/>
</g>
<mask id="mask2_63_14709" style="mask-type:luminance" maskUnits="userSpaceOnUse" x="0" y="62" width="116" height="9">
<path d="M0.358032 62.1888V70.3159H1.78835V67.0067H5.89203V65.7056H1.78835V63.488H6.41715V62.1888H0.358032ZM7.70977 70.3159H9.13825V62.1888H7.70977V70.3159ZM12.3826 63.488H14.4666C15.5242 63.488 16.1521 63.9654 16.1521 64.8346V64.8601C16.1521 65.682 15.4985 66.2177 14.4776 66.2177H12.3826V63.4898V63.488ZM10.9542 62.1888V70.3159H12.3826V67.4823H14.1765L16.176 70.3159H17.8616L15.6656 67.2381C16.8058 66.9138 17.6063 66.112 17.6063 64.7763V64.7526C17.6063 64.0438 17.3621 63.4406 16.9307 62.9996C16.4092 62.4876 15.605 62.1869 14.5823 62.1869H10.9542V62.1888ZM25.3271 62.1888V63.5117H27.9087V70.3159H29.35V63.5117H31.9316V62.1888H25.3253H25.3271ZM49.7472 62.1888V65.5672H45.8639V62.1888H44.4336V70.3159H45.8639V66.8901H49.7472V70.3159H51.1794V62.1888H49.7472ZM62.5191 70.3159H63.9476V62.1888H62.5191V70.3159ZM73.9837 62.1888V70.3159H80.0777V69.0385H75.414V66.8555H79.4957V65.5799H75.414V63.4661H80.019V62.1888H73.9837ZM103.02 63.488H105.104C106.161 63.488 106.789 63.9654 106.789 64.8346V64.8601C106.789 65.682 106.139 66.2177 105.115 66.2177H103.02V63.4898V63.488ZM101.591 62.1888V70.3159H103.02V67.4823H104.812L106.813 70.3159H108.499L106.303 67.2381C107.441 66.9138 108.243 66.112 108.243 64.7763V64.7526C108.243 64.0438 108.001 63.4406 107.568 62.9996C107.044 62.4876 106.244 62.1869 105.221 62.1869H101.593L101.591 62.1888ZM96.2886 63.836L97.6951 67.0869H94.8932L96.2886 63.836ZM95.6478 62.1286L92.0674 70.3159H93.5326L94.3699 68.3533H98.2184L99.0446 70.3159H100.554L96.9735 62.1286H95.6478ZM18.7814 64.4283V64.452C18.7814 65.9498 19.7582 66.46 21.4915 66.8792C23.0026 67.2272 23.3276 67.5406 23.3276 68.1219V68.1438C23.3276 68.7597 22.7713 69.166 21.8863 69.166C20.8746 69.166 20.0961 68.7834 19.3176 68.111L18.4564 69.1314C19.4333 70.0024 20.6065 70.4325 21.8514 70.4325C23.559 70.4325 24.7579 69.5268 24.7579 68.0053V67.9834C24.7579 66.6368 23.8619 66.0209 22.1415 65.6036C20.5845 65.2319 20.2118 64.9531 20.2118 64.3262V64.3044C20.2118 63.7704 20.702 63.3404 21.5374 63.3404C22.281 63.3404 23.0155 63.6301 23.7481 64.175L24.5156 63.0962C23.6893 62.4348 22.7474 62.074 21.5613 62.074C19.9455 62.074 18.7833 63.0379 18.7833 64.4301M109.42 64.4301V64.4538C109.42 65.9516 110.395 66.4619 112.129 66.881C113.642 67.229 113.968 67.5424 113.968 68.1237V68.1456C113.968 68.7615 113.41 69.1679 112.525 69.1679C111.515 69.1679 110.737 68.7852 109.957 68.1128L109.095 69.1332C110.072 70.0043 111.245 70.4343 112.49 70.4343C114.2 70.4343 115.397 69.5287 115.397 68.0071V67.9852C115.397 66.6386 114.503 66.0227 112.782 65.6054C111.225 65.2337 110.853 64.9549 110.853 64.328V64.3062C110.853 63.7723 111.341 63.3422 112.176 63.3422C112.92 63.3422 113.653 63.632 114.385 64.1768L115.153 63.098C114.326 62.4366 113.386 62.0758 112.2 62.0758C110.584 62.0758 109.422 63.0397 109.422 64.4319M35.8571 66.256V66.2796C35.8571 68.6121 37.6235 70.458 39.9957 70.458C41.5197 70.458 42.4487 69.9004 43.297 69.0184L42.379 68.0891C41.6812 68.7396 41.0423 69.146 40.0416 69.146C38.4846 69.146 37.3554 67.8449 37.3554 66.2541V66.2323C37.3554 64.6415 38.4828 63.3641 40.0416 63.3641C40.9725 63.3641 41.6702 63.7704 42.322 64.3736L43.2401 63.3167C42.4616 62.5732 41.5546 62.0503 40.0545 62.0503C37.5886 62.0503 35.8553 63.9417 35.8553 66.2541M54.0547 66.2541V66.2323C54.0547 64.6506 55.1821 63.3641 56.7997 63.3641C58.4173 63.3641 59.5667 64.6761 59.5667 66.2541V66.2778C59.5667 67.8559 58.4393 69.1442 56.8217 69.1442C55.2041 69.1442 54.0547 67.8322 54.0547 66.2523M52.5546 66.2523V66.276C52.5546 68.5611 54.2989 70.4544 56.7978 70.4544C59.2968 70.4544 61.0649 68.5392 61.0649 66.2505V66.2286C61.0649 63.9399 59.3206 62.0484 56.8217 62.0484C54.3228 62.0484 52.5546 63.9636 52.5546 66.2523ZM65.4055 66.2523V66.276C65.4055 68.6084 67.1718 70.4544 69.544 70.4544C71.068 70.4544 71.9989 69.8968 72.8472 69.0148L71.9291 68.0855C71.2314 68.736 70.5906 69.1424 69.5899 69.1424C68.0329 69.1424 66.9056 67.8413 66.9056 66.2505V66.2286C66.9056 64.6378 68.0348 63.3604 69.5899 63.3604C70.5227 63.3604 71.2185 63.7668 71.8704 64.37L72.7884 63.3131C72.0081 62.5696 71.1029 62.0466 69.6028 62.0466C67.1387 62.0466 65.4055 63.9381 65.4055 66.2505M84.1869 66.2505V66.2742C84.1869 68.6066 85.9551 70.4525 88.3273 70.4525C89.8476 70.4525 90.7803 69.8949 91.6286 69.013L90.7106 68.0836C90.0128 68.7342 89.3739 69.1405 88.3732 69.1405C86.8144 69.1405 85.687 67.8395 85.687 66.2487V66.2268C85.687 64.636 86.8144 63.3586 88.3732 63.3586C89.3041 63.3586 90 63.765 90.6536 64.3681L91.5717 63.3112C90.7932 62.5678 89.8843 62.0448 88.3842 62.0448C85.9202 62.0448 84.1869 63.9363 84.1869 66.2487" fill="white"/>
</mask>
<g mask="url(#mask2_63_14709)">
<path d="M115.391 62.0486H0.358032V70.4545H115.391V62.0486Z" fill="url(#paint2_linear_63_14709)"/>
</g>
<path d="M117.209 58.8195C117.308 58.8104 117.439 58.8049 117.593 58.8049C118.072 58.8049 118.313 58.9525 118.313 59.2496C118.313 59.5466 118.094 59.6997 117.657 59.6997H117.211V58.8213L117.209 58.8195ZM116.844 58.5772V61.0864H117.209V59.9766H117.674C118.048 59.9766 118.289 60.3465 118.392 61.0864H118.757C118.695 60.7019 118.625 60.4231 118.544 60.2518C118.467 60.0787 118.355 59.9493 118.212 59.86C118.513 59.7325 118.665 59.5211 118.665 59.2277C118.665 59.0072 118.568 58.8323 118.375 58.7029C118.18 58.5735 117.92 58.5097 117.591 58.5097C117.371 58.5097 117.121 58.5334 116.844 58.5772ZM115.742 59.8017C115.742 58.7393 116.611 57.8774 117.681 57.8774C118.751 57.8774 119.62 58.7393 119.62 59.8017C119.62 60.8641 118.75 61.726 117.681 61.726C116.612 61.726 115.742 60.8622 115.742 59.8017ZM116.04 58.1726C115.601 58.6081 115.36 59.1858 115.36 59.8017C115.36 60.4176 115.601 60.9953 116.04 61.4289C116.477 61.8626 117.06 62.1032 117.681 62.1032C118.302 62.1032 118.884 61.8645 119.321 61.4289C119.759 60.9934 120.002 60.414 120.002 59.8017C120.002 59.1894 119.759 58.6081 119.321 58.1726C118.884 57.7371 118.3 57.4984 117.681 57.4984C117.062 57.4984 116.477 57.7371 116.04 58.1726Z" fill="url(#paint3_linear_63_14709)"/>
<path d="M28.8249 80.1322C28.8249 80.3108 28.7882 80.4675 28.7166 80.6042C28.645 80.739 28.5458 80.852 28.4191 80.9449C28.2924 81.036 28.1456 81.1071 27.9803 81.1545C27.8132 81.2019 27.637 81.2256 27.4478 81.2256H25.3841V76.9871H27.67C27.8187 76.9871 27.9528 77.018 28.0721 77.0818C28.1915 77.1456 28.2943 77.2276 28.3787 77.3296C28.4632 77.4317 28.5275 77.5465 28.5734 77.6759C28.6193 77.8052 28.6431 77.9364 28.6431 78.0676C28.6431 78.2754 28.5917 78.4685 28.4871 78.6489C28.3824 78.8311 28.23 78.9642 28.0299 79.0516C28.2741 79.1227 28.4687 79.2521 28.6101 79.438C28.7533 79.622 28.8231 79.8552 28.8231 80.134L28.8249 80.1322ZM26.214 77.6904V78.7583H27.3211C27.4607 78.7583 27.58 78.7109 27.6792 78.6143C27.7783 78.5196 27.8261 78.3884 27.8261 78.2207C27.8261 78.0531 27.7802 77.9273 27.6902 77.8326C27.6002 77.7378 27.4882 77.6886 27.356 77.6886H26.214V77.6904ZM27.9895 79.9773C27.9895 79.9026 27.9766 79.8297 27.9509 79.7587C27.9252 79.6894 27.8903 79.6293 27.8463 79.5764C27.8022 79.5254 27.7508 79.4835 27.6902 79.4544C27.6296 79.4252 27.5635 79.4106 27.4919 79.4106H26.2158V80.5258H27.4497C27.5268 80.5258 27.5966 80.5112 27.6627 80.4839C27.7288 80.4547 27.7857 80.4165 27.8334 80.3673C27.8812 80.3181 27.9197 80.2598 27.9473 80.1923C27.9748 80.1249 27.9895 80.0539 27.9895 79.9773Z" fill="#231F20"/>
<path d="M31.5809 80.5259C31.7774 80.5259 31.9426 80.4858 32.0766 80.4075C32.2107 80.3273 32.319 80.2253 32.4016 80.0977C32.4842 79.9701 32.5412 79.8244 32.5761 79.6585C32.6091 79.4927 32.6275 79.3233 32.6275 79.1483V76.9872H33.4519V79.1483C33.4519 79.4381 33.417 79.7114 33.3472 79.9665C33.2774 80.2216 33.1673 80.4439 33.0167 80.6353C32.8662 80.8266 32.6734 80.9778 32.4365 81.089C32.1997 81.2001 31.9169 81.2566 31.5882 81.2566C31.2596 81.2566 30.9585 81.1983 30.7198 81.0799C30.4811 80.9633 30.2883 80.8066 30.1396 80.6134C29.9908 80.4202 29.8843 80.1961 29.8182 79.941C29.7521 79.6859 29.7191 79.4217 29.7191 79.1465V76.9854H30.549V79.1465C30.549 79.3269 30.5655 79.4982 30.6004 79.664C30.6353 79.8298 30.6922 79.9756 30.7748 80.1032C30.8575 80.2307 30.964 80.3328 31.0962 80.4111C31.2284 80.4877 31.3918 80.5278 31.5827 80.5278L31.5809 80.5259Z" fill="#231F20"/>
<path d="M35.0695 76.9854L36.1215 79.0262L37.192 76.9854H38.088L36.5365 79.7424V81.2238H35.7121V79.7314L34.1661 76.9854H35.0676H35.0695Z" fill="#231F20"/>
<path d="M40.6347 82.0001V76.5972H41.3196V82.0001H40.6347Z" fill="#231F20"/>
<path d="M46.8297 78.0951C46.8022 78.0677 46.7507 78.0295 46.6755 77.9821C46.602 77.9347 46.5102 77.8873 46.4056 77.8418C46.2991 77.7962 46.1834 77.7579 46.0604 77.7251C45.9355 77.6923 45.8088 77.6778 45.6803 77.6778C45.4526 77.6778 45.2819 77.7197 45.1699 77.8035C45.0579 77.8873 45.0009 78.0058 45.0009 78.157C45.0009 78.2445 45.023 78.3174 45.0634 78.3757C45.1056 78.434 45.1662 78.485 45.247 78.5269C45.3278 78.5707 45.4287 78.6107 45.5499 78.6454C45.6729 78.6818 45.8143 78.7201 45.9741 78.7583C46.1834 78.8148 46.3725 78.8731 46.5433 78.9369C46.714 79.0007 46.8572 79.0809 46.9766 79.1756C47.0941 79.2704 47.1859 79.3852 47.2502 79.5182C47.3144 79.6512 47.3456 79.8152 47.3456 80.0102C47.3456 80.238 47.3034 80.4311 47.2171 80.5933C47.1308 80.7537 47.0151 80.8849 46.8682 80.9851C46.7214 81.0835 46.5524 81.1564 46.3633 81.2038C46.1724 81.2493 45.9741 81.273 45.7648 81.273C45.4434 81.273 45.1276 81.2256 44.8137 81.1291C44.4997 81.0325 44.2206 80.8976 43.9709 80.7227L44.3381 80.012C44.3748 80.0485 44.4391 80.094 44.5327 80.1523C44.6264 80.2106 44.7384 80.2671 44.8669 80.3254C44.9954 80.3838 45.1368 80.4311 45.2947 80.4712C45.4508 80.5113 45.6124 80.5314 45.7758 80.5314C46.233 80.5314 46.4606 80.3856 46.4606 80.0958C46.4606 80.0047 46.4349 79.9264 46.3817 79.8626C46.3303 79.7988 46.255 79.7423 46.1595 79.695C46.064 79.6476 45.9465 79.6039 45.8107 79.5638C45.6748 79.5237 45.5224 79.4799 45.3535 79.4326C45.1497 79.3761 44.9716 79.3159 44.821 79.2503C44.6704 79.1847 44.5456 79.1064 44.4446 79.0171C44.3436 78.9278 44.2683 78.8239 44.2188 78.7055C44.1692 78.5889 44.1435 78.4486 44.1435 78.2846C44.1435 78.0695 44.1839 77.8782 44.2628 77.7106C44.3436 77.5429 44.4538 77.4044 44.597 77.2933C44.7402 77.1821 44.9055 77.0983 45.0927 77.04C45.2819 76.9817 45.4838 76.9525 45.7005 76.9525C46.0016 76.9525 46.2789 76.9999 46.5304 77.0928C46.7838 77.1876 47.0041 77.2969 47.1932 77.4245L46.826 78.0932L46.8297 78.0951Z" fill="#231F20"/>
<path d="M51.2382 80.5022V81.2238H48.2729V76.9854H51.1849V77.707H49.1028V78.7274H50.9022V79.3961H49.1028V80.5004H51.2382V80.5022Z" fill="#231F20"/>
<path d="M52.1892 81.2238V76.9854H53.0192V80.5004H55.1968V81.222H52.1892V81.2238Z" fill="#231F20"/>
<path d="M56.0028 81.2238V76.9854H56.8328V80.5004H59.0104V81.222H56.0028V81.2238Z" fill="#231F20"/>
<path d="M61.5919 82.0001V76.5972H62.2768V82.0001H61.5919Z" fill="#231F20"/>
<path d="M68.4369 77.707H67.0708V81.2238H66.2464V77.707H64.8804V76.9854H68.4351V77.707H68.4369Z" fill="#231F20"/>
<path d="M69.2668 81.2238V76.9854H71.1561C71.3526 76.9854 71.5344 77.0254 71.7015 77.1074C71.8685 77.1894 72.0118 77.297 72.1311 77.43C72.2504 77.563 72.3459 77.7142 72.4139 77.8837C72.4818 78.0532 72.5148 78.2226 72.5148 78.3939C72.5148 78.6691 72.4451 78.9187 72.3074 79.1429C72.1697 79.367 71.9824 79.5292 71.7455 79.6294L72.7205 81.2238H71.7877L70.9156 79.8025H70.0967V81.2238H69.2668ZM70.0967 79.0809H71.1378C71.213 79.0809 71.2847 79.0627 71.3508 79.0262C71.4169 78.9898 71.4738 78.9406 71.5215 78.8805C71.5693 78.8185 71.6078 78.7456 71.6353 78.6618C71.6629 78.578 71.6776 78.4887 71.6776 78.3939C71.6776 78.2992 71.6611 78.2026 71.6298 78.1188C71.5986 78.035 71.5546 77.9621 71.5013 77.9001C71.4462 77.8381 71.3856 77.7908 71.314 77.7561C71.2424 77.7215 71.1727 77.7051 71.101 77.7051H70.0967V79.0791V79.0809Z" fill="#231F20"/>
<path d="M74.7824 76.9854H75.5169L77.1418 81.2238H76.288L75.8914 80.167H74.3987L74.0076 81.2238H73.1538L74.7843 76.9854H74.7824ZM75.739 79.5875L75.1496 77.922L74.5364 79.5875H75.739Z" fill="#231F20"/>
<path d="M77.9111 81.2238V76.9854H79.4626C79.8115 76.9854 80.1181 77.04 80.3807 77.153C80.6432 77.2641 80.8617 77.4154 81.0398 77.6067C81.2161 77.7981 81.3483 78.0222 81.4364 78.2791C81.5246 78.5361 81.5686 78.8094 81.5686 79.0991C81.5686 79.4217 81.5191 79.7132 81.4218 79.9738C81.3244 80.2344 81.1812 80.4567 80.9976 80.6425C80.8122 80.8284 80.5918 80.9706 80.3329 81.0726C80.0741 81.1746 79.784 81.2257 79.4626 81.2257H77.9111V81.2238ZM80.7314 79.0991C80.7314 78.8969 80.7038 78.7092 80.6469 78.5379C80.59 78.3666 80.5092 78.219 80.4009 78.0951C80.2926 77.9712 80.1585 77.8764 80.0006 77.809C79.8427 77.7416 79.6628 77.707 79.4626 77.707H78.7411V80.5004H79.4626C79.6683 80.5004 79.8482 80.464 80.008 80.3929C80.1659 80.3218 80.2981 80.2234 80.4046 80.0977C80.5111 79.972 80.5918 79.8244 80.6488 79.6531C80.7057 79.4818 80.7332 79.2959 80.7332 79.0973L80.7314 79.0991Z" fill="#231F20"/>
<path d="M85.4832 80.5022V81.2238H82.5179V76.9854H85.43V77.707H83.3478V78.7274H85.1472V79.3961H83.3478V80.5004H85.4832V80.5022Z" fill="#231F20"/>
<path d="M86.3388 79.9465V79.2249H88.1602V79.9465H86.3388Z" fill="#231F20"/>
<path d="M89.2491 81.2238V76.9854H90.079V81.2238H89.2491Z" fill="#231F20"/>
<path d="M92.1005 78.5086V81.2256H91.2706V76.9871H91.9132L94.1386 79.7678V76.9925H94.9685V81.2256H94.2947L92.0987 78.5086H92.1005Z" fill="#231F20"/>
</g>
<defs>
<linearGradient id="paint0_linear_63_14709" x1="1.23396" y1="26.6517" x2="113.421" y2="26.6517" gradientUnits="userSpaceOnUse">
<stop stop-color="#683C22"/>
<stop offset="0.24" stop-color="#683C22"/>
<stop offset="0.59" stop-color="#744928"/>
<stop offset="1" stop-color="#624031"/>
</linearGradient>
<linearGradient id="paint1_linear_63_14709" x1="0.378071" y1="26.1563" x2="115.274" y2="26.1563" gradientUnits="userSpaceOnUse">
<stop stop-color="#E8C77C"/>
<stop offset="0.24" stop-color="#A88140"/>
<stop offset="0.41" stop-color="#D0AE68"/>
<stop offset="0.59" stop-color="#906A30"/>
<stop offset="1" stop-color="#E8CA87"/>
</linearGradient>
<linearGradient id="paint2_linear_63_14709" x1="0.348081" y1="66.8115" x2="115.238" y2="66.8115" gradientUnits="userSpaceOnUse">
<stop stop-color="#E8C77C"/>
<stop offset="0.24" stop-color="#A88140"/>
<stop offset="0.41" stop-color="#D0AE68"/>
<stop offset="0.59" stop-color="#906A30"/>
<stop offset="1" stop-color="#E8CA87"/>
</linearGradient>
<linearGradient id="paint3_linear_63_14709" x1="117.681" y1="62.1032" x2="117.681" y2="57.4966" gradientUnits="userSpaceOnUse">
<stop stop-color="#E8C77C"/>
<stop offset="0.45" stop-color="#D0AE68"/>
<stop offset="1" stop-color="#E8CA87"/>
</linearGradient>
<clipPath id="clip0_63_14709">
<rect width="120" height="82" fill="white"/>
</clipPath>
</defs>
</svg>
