<svg width="112" height="112" viewBox="0 0 112 112" fill="none" xmlns="http://www.w3.org/2000/svg">
<rect x="2.5" y="2.5" width="107" height="107" rx="53.5" stroke="black" stroke-width="5"/>
<path d="M54.7274 53.0767C54.7274 57.2945 54.7274 61.5029 54.7274 65.7334C54.6297 65.7334 54.5447 65.7334 54.4596 65.7334C52.6799 65.7334 50.897 65.7334 49.1172 65.7334C48.5597 65.7334 48.2888 66.0043 48.2888 66.5555C48.2888 66.7445 48.2888 66.9304 48.2888 67.1194C48.2919 67.658 48.5691 67.9384 49.1046 67.9384C50.8938 67.9384 52.6799 67.9384 54.4691 67.9384C54.5478 67.9384 54.6297 67.9384 54.7242 67.9384C54.7242 68.2282 54.7242 68.5117 54.7242 68.8172C54.6423 68.8204 54.5573 68.8298 54.4754 68.8298C52.9571 68.8235 51.4356 68.8267 49.9173 68.8015C48.0242 68.7731 46.131 68.7385 44.2379 68.6786C42.1305 68.6156 40.0263 68.5243 37.9221 68.4392C36.8259 68.3951 36.0384 67.8187 35.777 66.8611C35.7203 66.6563 35.6982 66.439 35.695 66.2279C35.6887 64.3537 35.6856 62.4794 35.6919 60.6052C35.6982 59.3168 35.9282 58.0663 36.3692 56.8535C36.3975 56.7779 36.4227 56.7023 36.4574 56.5984C36.2085 56.5732 35.9723 56.5448 35.7329 56.5259C34.9139 56.4535 34.0917 56.3842 33.2727 56.3149C32.271 56.2298 31.5024 55.4014 31.4772 54.3839C31.452 53.3665 32.1765 52.4971 33.1876 52.3931C33.5688 52.3522 33.9594 52.4089 34.3468 52.4341C34.8414 52.4687 35.336 52.5034 35.8274 52.5632C36.596 52.6546 37.2354 53.0042 37.7394 53.5964C37.7646 53.6279 37.7898 53.6594 37.8182 53.6878C37.8276 53.6972 37.8402 53.7035 37.8717 53.7224C38.0292 53.42 38.1836 53.1208 38.3411 52.8184C39.0687 51.404 39.79 49.9865 40.5272 48.5753C41.4344 46.8334 42.8644 45.775 44.7954 45.4442C46.4019 45.1702 48.0179 44.9213 49.637 44.7386C50.8718 44.6 52.1192 44.5748 53.3603 44.5118C53.7824 44.4898 54.2045 44.5024 54.6266 44.4961C54.699 44.4961 54.7715 44.4961 54.8124 44.4961C54.7809 45.167 54.7494 45.8159 54.7148 46.5058C54.3746 46.5058 54.0312 46.5026 53.6847 46.5058C51.7695 46.5278 49.8606 46.6696 47.9675 46.9468C46.9279 47.098 45.8916 47.2618 44.8647 47.476C43.7433 47.7122 42.9054 48.3769 42.3667 49.388C41.6171 50.7929 40.8894 52.2073 40.1555 53.6185C40.1303 53.6657 40.1145 53.713 40.083 53.7886C44.9592 53.2909 49.8291 52.9948 54.7274 53.0767ZM38.6088 60.4823C38.6088 60.7312 38.6056 60.9769 38.6088 61.2257C38.6151 61.7675 38.8451 62.1896 39.2987 62.4889C39.7617 62.7913 40.2563 63.0275 40.7917 63.1567C42.3069 63.5189 43.8315 63.478 45.3498 63.1756C45.8475 63.0779 46.0743 62.6905 46.1373 62.1991C46.194 61.7738 46.0711 61.484 45.6617 61.2509C44.3828 60.5233 43.1007 59.8051 41.8155 59.09C41.4973 58.9136 41.1446 58.816 40.776 58.838C40.2972 58.8695 39.8184 58.9199 39.3365 58.9609C38.886 58.9987 38.6151 59.2822 38.6088 59.7326C38.6056 59.9878 38.6088 60.2335 38.6088 60.4823Z" fill="#9F8A60"/>
<path d="M73.1519 43.7746C73.1519 43.2013 73.1519 42.6595 73.1519 42.1114C73.1834 42.102 73.2054 42.0894 73.2306 42.0894C74.0937 42.0925 74.96 42.0579 75.8199 42.1051C77.354 42.1902 78.6959 43.4533 78.9227 44.9748C78.9605 45.2331 78.9794 45.4945 78.9794 45.7528C78.9825 54.1224 78.9794 62.4919 78.9825 70.8615C78.9825 72.3735 78.3557 73.5012 77.0075 74.2036C76.5318 74.4525 76.0121 74.5533 75.4766 74.5533C70.046 74.5533 64.6154 74.5533 59.1879 74.5533C57.1121 74.5533 55.5938 73.0318 55.5938 70.9497C55.5938 66.2152 55.5938 61.4839 55.5938 56.7495C55.5938 53.0388 55.5938 49.3312 55.5938 45.6205C55.5938 43.9353 56.6994 42.5335 58.3122 42.165C58.4603 42.1303 58.6146 42.0988 58.769 42.0988C59.6258 42.0894 60.4826 42.0894 61.3394 42.0862C61.3646 42.0862 61.3898 42.0957 61.4307 42.1051C61.4307 42.6532 61.4307 43.1982 61.4307 43.762C61.3551 43.7652 61.2827 43.7715 61.2134 43.7715C60.5235 43.7715 59.8337 43.7967 59.1438 43.7652C58.3248 43.7274 57.3294 44.3574 57.2822 45.5512C57.279 45.5922 57.2822 45.6331 57.2822 45.6709C57.2822 54.1003 57.2822 62.5297 57.2822 70.9591C57.2822 71.8758 57.8082 72.5877 58.6524 72.805C58.8068 72.846 58.9706 72.8649 59.1281 72.8649C64.5713 72.868 70.0145 72.868 75.4577 72.868C76.4751 72.868 77.2532 72.1152 77.2941 71.1009C77.2973 71.041 77.2973 70.9812 77.2973 70.9213C77.2973 62.5171 77.2973 54.1161 77.3004 45.7119C77.3004 45.0252 77.0705 44.4708 76.5003 44.0739C76.2074 43.8691 75.8798 43.7652 75.5207 43.7683C74.8119 43.7715 74.1 43.7683 73.3913 43.7683C73.3157 43.7746 73.2432 43.7746 73.1519 43.7746Z" fill="#9F8A60"/>
<path d="M67.3023 45.8282C66.0045 45.8282 64.7067 45.8282 63.4058 45.8282C62.7348 45.8282 62.2875 45.3809 62.2875 44.7068C62.2844 43.809 62.2844 42.9144 62.2875 42.0167C62.2875 41.3489 62.738 40.9016 63.4121 40.8984C63.5381 40.8984 63.6672 40.8984 63.7932 40.8984C64.3476 40.8984 64.6626 40.6653 64.8327 40.1393C65.1131 39.2856 65.6801 38.7092 66.5369 38.4414C67.8819 38.0256 69.29 38.7596 69.7341 40.0983C69.9294 40.6905 70.2192 40.8953 70.8461 40.8984C71.0445 40.8984 71.2524 40.8921 71.4446 40.9299C71.958 41.0307 72.2951 41.456 72.2951 41.9757C72.2982 42.8987 72.2982 43.8216 72.2951 44.7477C72.2951 45.362 71.8289 45.8282 71.2146 45.8313C69.9105 45.8313 68.6064 45.8282 67.3023 45.8282ZM67.2803 42.1395C67.9544 42.1427 68.5245 41.582 68.5308 40.9079C68.5371 40.2306 67.9764 39.6668 67.2992 39.6605C66.6251 39.6542 66.0549 40.2149 66.0486 40.8921C66.0423 41.5662 66.6062 42.1364 67.2803 42.1395Z" fill="#9F8A60"/>
<path d="M36.2775 68.8359C36.3941 68.8926 36.476 68.9336 36.5547 68.9745C37.1091 69.2612 37.7139 69.2706 38.3156 69.2927C40.3473 69.3683 42.3791 69.4376 44.414 69.51C44.5526 69.5163 44.6943 69.5289 44.8581 69.5384C44.8581 69.762 44.8613 69.9825 44.8581 70.1999C44.8487 70.6409 44.877 71.0882 44.8203 71.5229C44.7069 72.3923 43.9698 73.0349 43.091 73.0412C41.412 73.0506 39.7299 73.0538 38.051 73.0412C37.0934 73.0349 36.3374 72.3072 36.2901 71.3087C36.246 70.5023 36.2775 69.6896 36.2775 68.8359Z" fill="#9F8A60"/>
<path d="M74.7077 61.8392C72.7295 61.8392 70.7702 61.8392 68.7794 61.8392C68.7794 61.7573 68.7794 61.6817 68.7794 61.603C68.7794 60.5729 68.77 59.5397 68.7857 58.5097C68.7889 58.2199 68.7353 57.9931 68.5085 57.8041C68.4361 57.7442 68.3983 57.6466 68.3447 57.5647C68.3573 57.5489 68.3699 57.5332 68.3857 57.5174C68.5085 57.5269 68.6314 57.5363 68.7763 57.5458C68.7763 56.9315 68.7763 56.3173 68.7763 55.6904C70.7608 55.6904 72.7232 55.6904 74.7046 55.6904C74.7046 55.9865 74.7046 56.2795 74.7046 56.6039C74.8621 56.5504 74.9944 56.4968 75.133 56.459C75.4669 56.3677 75.8039 56.2763 76.141 56.1976C76.2103 56.1818 76.289 56.207 76.3615 56.2165C76.33 56.2858 76.3142 56.3677 76.2638 56.4181C75.8071 56.9063 75.3472 57.3946 74.881 57.8734C74.7613 57.9962 74.7077 58.1191 74.7077 58.2955C74.714 59.4011 74.7109 60.5036 74.7109 61.6093C74.7077 61.6849 74.7077 61.7573 74.7077 61.8392ZM73.9549 56.4401C73.5328 56.4401 73.139 56.4401 72.7453 56.4401C71.7404 56.4401 70.7387 56.4433 69.7339 56.437C69.5764 56.437 69.5228 56.4811 69.5291 56.6386C69.5417 56.8717 69.5323 57.1079 69.5323 57.341C69.5323 57.7631 69.5386 57.7505 69.9166 57.9175C70.4521 58.1537 70.9781 58.412 71.5262 58.6703C72.2192 58.0277 73.0036 57.4607 73.8635 57.004C73.9076 56.9819 73.9454 56.9158 73.9517 56.8685C73.9612 56.7394 73.9549 56.6039 73.9549 56.4401ZM73.9423 58.8404C73.8131 58.9727 73.7123 59.0767 73.6084 59.1806C73.1485 59.6468 72.6917 60.1193 72.2255 60.5792C71.8916 60.91 71.479 60.8942 71.1451 60.5572C70.8301 60.239 70.5214 59.9146 70.2064 59.5964C69.9922 59.3822 69.7748 59.1712 69.5417 58.9412C69.5386 59.0263 69.5323 59.0861 69.5323 59.1428C69.5323 59.7193 69.5386 60.2926 69.5291 60.869C69.526 61.0517 69.5732 61.1053 69.7622 61.1053C71.0852 61.0958 72.4114 61.1021 73.7344 61.099C73.8037 61.099 73.8761 61.0927 73.9454 61.0895C73.9423 60.3398 73.9423 59.6153 73.9423 58.8404Z" fill="#9F8A60"/>
<path d="M74.7076 53.653C72.7294 53.653 70.7701 53.653 68.7793 53.653C68.7793 53.5774 68.7793 53.5018 68.7793 53.4231C68.7793 52.3584 68.773 51.2937 68.7856 50.2321C68.7888 50.0085 68.7384 49.8352 68.5683 49.6872C68.4769 49.6053 68.4108 49.495 68.332 49.3974C68.3478 49.3785 68.3635 49.3564 68.3793 49.3375C68.5021 49.347 68.625 49.3564 68.7699 49.369C68.7699 48.7548 68.7699 48.1437 68.7699 47.5137C70.7544 47.5137 72.7168 47.5137 74.7045 47.5137C74.7045 47.8066 74.7045 48.1027 74.7045 48.424C75.2589 48.2382 75.7818 48.0303 76.3425 47.9956C76.3551 48.0114 76.3708 48.0271 76.3834 48.0429C76.3425 48.109 76.311 48.1846 76.2574 48.2413C75.7849 48.7422 75.3061 49.2367 74.8399 49.7439C74.7675 49.8226 74.7139 49.9518 74.7139 50.0557C74.7045 51.1803 74.7076 52.3048 74.7076 53.4294C74.7076 53.4987 74.7076 53.5711 74.7076 53.653ZM73.9548 48.2571C73.8729 48.2539 73.8193 48.2476 73.7689 48.2476C72.4239 48.2476 71.0788 48.2476 69.7338 48.2476C69.6393 48.2476 69.5259 48.2193 69.529 48.3862C69.5353 48.7485 69.5259 49.1076 69.5353 49.4698C69.5353 49.5234 69.5952 49.599 69.6456 49.6242C70.2252 49.9077 70.8111 50.1849 71.397 50.4589C71.4442 50.481 71.5324 50.4778 71.5639 50.4463C72.2601 49.8132 73.0192 49.2714 73.8477 48.8272C73.8949 48.802 73.939 48.7327 73.9453 48.6792C73.9642 48.5437 73.9548 48.4083 73.9548 48.2571ZM69.5479 50.8495C69.5479 51.489 69.5479 52.1946 69.5479 52.9002C71.0221 52.9002 72.4774 52.9002 73.9359 52.9002C73.9359 52.1599 73.9359 51.4323 73.9359 50.7046C73.9201 50.6952 73.9044 50.6826 73.8855 50.6731C73.8351 50.7361 73.7941 50.8054 73.7374 50.8621C73.224 51.3819 72.7137 51.9016 72.1939 52.4151C71.901 52.7049 71.482 52.6954 71.1859 52.4088C70.9843 52.2135 70.7953 52.0024 70.5906 51.8103C70.2378 51.4764 69.8755 51.1519 69.5479 50.8495Z" fill="#9F8A60"/>
<path d="M68.7759 65.7365C68.7759 65.1191 68.7759 64.5112 68.7759 63.8906C70.7573 63.8906 72.7197 63.8906 74.6979 63.8906C74.6979 64.1867 74.6979 64.4765 74.6979 64.7915C74.9657 64.7033 75.2051 64.6151 75.4539 64.5458C75.6902 64.4797 75.9327 64.4261 76.1753 64.3757C76.232 64.3631 76.295 64.3946 76.3548 64.4041C76.3296 64.4608 76.3202 64.5332 76.2792 64.5773C75.8445 65.0404 75.4161 65.5097 74.9657 65.9602C74.7798 66.146 74.6885 66.3319 74.6948 66.6059C74.7137 67.6643 74.7011 68.7196 74.7011 69.778C74.7011 69.8504 74.7011 69.9229 74.7011 70.0142C72.726 70.0142 70.7636 70.0142 68.7728 70.0142C68.7728 69.9323 68.7728 69.8567 68.7728 69.778C68.7728 68.7007 68.7633 67.6234 68.7791 66.5461C68.7822 66.3224 68.6814 66.1901 68.5491 66.0452C68.4735 65.9633 68.4263 65.8531 68.3633 65.7554C68.4767 65.7491 68.5901 65.746 68.7003 65.7397C68.7192 65.7397 68.7318 65.7397 68.7759 65.7365ZM73.9514 64.6498C72.4583 64.6498 70.9998 64.6498 69.5288 64.6498C69.5288 65.0624 69.5256 65.4562 69.5319 65.8499C69.5319 65.9003 69.5823 65.9728 69.6296 65.9948C70.2533 66.2783 70.877 66.5587 71.5322 66.8485C72.2157 66.2216 73.0001 65.6452 73.8695 65.1916C73.9073 65.1727 73.9451 65.1128 73.9482 65.0719C73.9577 64.9333 73.9514 64.7947 73.9514 64.6498ZM69.5382 69.2677C71.0187 69.2677 72.4803 69.2677 73.9419 69.2677C73.9419 68.5274 73.9419 67.7998 73.9419 67.0406C73.8632 67.1162 73.8033 67.1698 73.7498 67.2233C73.2521 67.7273 72.7575 68.2376 72.2535 68.7385C71.8976 69.0944 71.4912 69.0944 71.1447 68.7385C70.6565 68.2439 70.1714 67.7431 69.6863 67.2454C69.6485 67.2076 69.6044 67.1729 69.5382 67.1194C69.5382 67.8533 69.5382 68.5463 69.5382 69.2677Z" fill="#9F8A60"/>
<path d="M66.6151 48.2627C66.6151 48.6974 66.6151 49.1163 66.6151 49.551C64.2684 49.551 61.9248 49.551 59.5654 49.551C59.5654 49.1226 59.5654 48.6974 59.5654 48.2627C61.9153 48.2627 64.2558 48.2627 66.6151 48.2627Z" fill="#9F8A60"/>
<path d="M66.6157 64.6494C66.6157 65.0841 66.6157 65.5031 66.6157 65.9346C64.2689 65.9346 61.9285 65.9346 59.5723 65.9346C59.5723 65.5094 59.5723 65.0873 59.5723 64.6494C61.9159 64.6494 64.2532 64.6494 66.6157 64.6494Z" fill="#9F8A60"/>
<path d="M59.5562 68.2685C59.5562 67.859 59.553 67.4653 59.5625 67.0715C59.5625 67.0306 59.6349 66.9833 59.6822 66.9581C59.7137 66.9424 59.7609 66.955 59.8019 66.955C61.6541 66.955 63.5094 66.955 65.3616 66.955C65.4278 66.955 65.4939 66.955 65.5758 66.955C65.5758 67.3991 65.5758 67.8307 65.5758 68.2717C63.5724 68.2685 61.5816 68.2685 59.5562 68.2685Z" fill="#9F8A60"/>
<path d="M64.3723 56.459C64.3723 56.8968 64.3723 57.3189 64.3723 57.7505C62.769 57.7505 61.1751 57.7505 59.5654 57.7505C59.5654 57.3189 59.5654 56.8968 59.5654 56.459C61.1688 56.459 62.7627 56.459 64.3723 56.459Z" fill="#9F8A60"/>
<path d="M63.847 51.8855C62.4138 51.8855 60.9994 51.8855 59.5693 51.8855C59.5693 51.4539 59.5693 51.0287 59.5693 50.5908C60.9931 50.5908 62.4138 50.5908 63.847 50.5908C63.847 51.0192 63.847 51.4445 63.847 51.8855Z" fill="#9F8A60"/>
<path d="M59.5654 58.7812C60.6648 58.7812 61.7452 58.7812 62.8414 58.7812C62.8414 59.2128 62.8414 59.6349 62.8414 60.0727C61.7515 60.0727 60.6648 60.0727 59.5654 60.0727C59.5654 59.6412 59.5654 59.2222 59.5654 58.7812Z" fill="#9F8A60"/>
</svg>
