<svg width="113" height="112" viewBox="0 0 113 112" fill="none" xmlns="http://www.w3.org/2000/svg">
<rect x="2.8335" y="2.5" width="107" height="107" rx="53.5" stroke="black" stroke-width="5"/>
<path d="M74.8249 51.2931C74.8249 54.1502 74.8631 57.0103 74.809 59.8674C74.7772 61.4833 74.2266 62.9953 73.5901 64.4758C72.8295 66.2461 71.5279 67.5912 70.1754 68.9048C68.8674 70.1805 67.5562 71.4562 66.1814 72.6627C64.1573 74.4393 62.0696 76.1245 59.5936 77.2648C57.1049 78.4114 54.5876 78.5563 51.9907 77.6019C49.7407 76.7734 47.8598 75.3937 46.0426 73.9038C43.7895 72.0579 41.7559 69.982 39.6777 67.9534C37.0903 65.4303 35.9415 62.3464 35.9287 58.809C35.9097 53.4319 35.9224 48.0549 35.9256 42.6779C35.9256 40.3091 37.695 37.6946 39.9355 36.8409C42.3605 35.9148 44.8906 35.3604 47.4525 34.9289C49.9475 34.5099 52.4553 34.3398 54.9886 34.2989C58.8617 34.239 62.6583 34.7304 66.4232 35.5683C66.7765 35.6471 67.1265 35.729 67.4766 35.8172C67.7567 35.8865 67.8553 36.0345 67.6644 36.2928C67.0502 37.1118 66.4391 37.934 65.8249 38.753C65.634 39.0081 65.3635 38.9577 65.1152 38.8947C63.2948 38.4411 61.4395 38.1923 59.5777 38.0001C57.385 37.7765 55.1923 37.7387 52.9932 37.8899C51.9652 37.9592 50.9341 37.9812 49.9125 38.1198C47.0292 38.5104 44.1873 39.0806 41.444 40.0634C40.3046 40.4697 39.5663 41.5029 39.5504 42.7881C39.5218 44.864 39.5345 46.9398 39.5345 49.0156C39.5345 52.4365 39.5218 55.8543 39.544 59.2752C39.5568 61.5085 40.3397 63.4678 41.8927 65.0932C43.4871 66.7627 45.142 68.3692 46.8574 69.9128C48.2831 71.1948 49.7757 72.3949 51.4147 73.4061C53.9225 74.9527 56.4398 75.0945 59.0462 73.5573C60.8316 72.5052 62.4197 71.2263 63.9536 69.856C65.1789 68.7598 66.3787 67.6416 67.5212 66.4698C68.5778 65.3893 69.7807 64.4223 70.3695 62.9544C70.8278 61.8046 71.2033 60.6517 71.2033 59.4012C71.2033 54.7549 71.2128 50.1118 71.2001 45.4656C71.2001 44.9931 71.3306 44.6214 71.617 44.2497C72.4254 43.1913 73.1987 42.1077 73.9911 41.0399C74.0771 40.9233 74.1471 40.7312 74.3221 40.7501C74.5417 40.7753 74.5131 41.0052 74.564 41.1533C74.809 41.8746 74.8249 42.6212 74.8249 43.374C74.8249 46.0169 74.8249 48.6534 74.8249 51.2931Z" fill="#9F8A60"/>
<path d="M74.3984 36.6615C74.3316 37.1434 74.1947 37.6474 73.867 38.0853C71.7824 40.8951 69.6947 43.7017 67.6134 46.5147C64.4755 50.7546 61.3439 54.9976 58.2124 59.2375C57.7955 59.8014 57.404 60.381 56.968 60.9259C55.9846 62.1576 54.2438 62.0568 53.4609 60.7275C51.6724 57.6846 49.8902 54.6417 48.108 51.5956C47.3315 50.2695 47.777 48.9748 49.1805 48.4425C50.0652 48.1054 51.0932 48.496 51.6437 49.4221C52.6717 51.1515 53.6773 52.8934 54.6925 54.6291C54.8644 54.922 55.0681 55.1992 55.2272 55.5016C55.4277 55.8828 55.59 55.8796 55.8382 55.5331C56.672 54.3676 57.5186 53.2116 58.3715 52.0587C60.0041 49.8505 61.6494 47.6487 63.2757 45.4374C65.2679 42.7315 67.2506 40.0162 69.2396 37.3072C69.7234 36.6489 70.2039 35.9842 70.7068 35.3385C71.165 34.7526 72.2821 34.4565 72.9663 34.7085C73.7301 34.9951 74.408 35.896 74.3984 36.6615Z" fill="#9F8A60"/>
<path d="M68.7493 48.4835C68.7493 48.8363 68.7493 49.1891 68.7493 49.5419C68.7493 52.6383 68.7238 55.7348 68.7588 58.8312C68.7843 61.1685 67.7659 62.9735 66.0696 64.5012C65.0162 65.4494 64.0297 66.47 62.989 67.4307C61.4423 68.8577 59.8638 70.2468 58.0339 71.321C57.5597 71.6013 57.06 71.825 56.5413 72.0108C55.5675 72.3573 54.6255 72.2565 53.6898 71.8344C52.1049 71.1194 50.7683 70.0452 49.473 68.9301C48.1141 67.7583 46.7647 66.5645 45.5172 65.2793C44.6388 64.3784 43.6014 63.6035 42.9649 62.4947C42.3443 61.4174 41.9942 60.2739 42.0006 58.9982C42.026 53.8952 42.0069 48.789 42.0038 43.686C42.0038 42.5867 42.1183 42.3851 43.1781 42.0732C45.985 41.2511 48.8365 40.6935 51.7612 40.4258C53.8935 40.2305 56.0162 40.2273 58.1421 40.3659C59.9561 40.4856 61.7669 40.703 63.5491 41.0873C63.931 41.1692 63.931 41.2605 63.7496 41.6196C63.215 42.6623 62.4671 42.7883 61.3596 42.5835C58.855 42.1205 56.309 42.0134 53.763 42.1205C50.6283 42.2496 47.5508 42.7662 44.5211 43.5663C44.0469 43.6923 43.8655 43.9065 43.8687 44.4137C43.8878 49.4316 43.8751 54.4527 43.8878 59.4707C43.891 60.381 44.1838 61.2662 44.8075 61.9088C47.2867 64.454 49.7817 66.9897 52.665 69.1097C53.2315 69.5255 53.8235 69.9003 54.4759 70.1807C55.1187 70.4547 55.7361 70.4169 56.3663 70.1208C57.7188 69.4877 58.8741 68.5742 59.9943 67.6229C61.9897 65.925 63.8355 64.0728 65.6814 62.2206C66.4452 61.452 66.8366 60.5039 66.8589 59.4707C66.913 56.8341 66.8875 54.1976 66.8653 51.561C66.8621 50.9877 66.9957 50.5026 67.3617 50.0553C67.7945 49.5324 68.186 48.9749 68.5933 48.4362C68.6443 48.452 68.6952 48.4677 68.7493 48.4835Z" fill="#9F8A60"/>
</svg>
