<svg width="283" height="44" viewBox="0 0 283 44" fill="none" xmlns="http://www.w3.org/2000/svg">
<mask id="mask0_92_2621" style="mask-type:luminance" maskUnits="userSpaceOnUse" x="0" y="1" width="94" height="41">
<path d="M46.3281 36.7755C42.888 36.5126 33.045 35.142 20.5072 27.9959C19.2135 27.2162 17.9608 26.3866 16.7293 25.5479C12.7863 22.8642 8.7555 20.0309 5.98193 16.5055C5.60324 16.0249 5.25938 15.5278 4.96097 15.0125C4.67316 14.5183 4.42625 14.0015 4.349 13.4621C4.05968 11.4855 6.36366 10.7995 8.27228 10.1815C11.4488 9.1539 14.8389 8.5283 18.188 7.97372C18.188 7.97372 30.5002 5.51212 47.1037 5.42448C63.7087 5.51212 76.0208 7.97372 76.0208 7.97372C79.37 8.5283 82.7601 9.15541 85.9366 10.1815C87.8452 10.7995 90.1477 11.4855 89.8599 13.4621C89.7811 14.0015 89.5342 14.5183 89.2479 15.0125C88.948 15.5278 88.6056 16.0249 88.2254 16.5055C85.4534 20.0309 81.4225 22.8642 77.4796 25.5479C76.2465 26.3881 74.9953 27.2162 73.6987 27.9959C61.1624 35.142 51.3193 36.5141 47.8808 36.7755C47.6217 36.7951 47.3627 36.8042 47.1052 36.8042C46.8477 36.8042 46.5887 36.7951 46.3311 36.7755M15.7568 5.16305C12.1304 5.85665 8.45709 6.64092 5.01702 7.92688C2.94934 8.69905 0.4545 9.55736 0.76806 12.0295C0.854402 12.705 1.11949 13.3518 1.43153 13.9713C1.7557 14.6135 2.12833 15.2361 2.53884 15.8375C5.54416 20.247 9.90673 23.7905 14.1784 27.1482C15.5129 28.1984 16.8687 29.2351 18.2713 30.2112C31.8498 39.1495 42.5109 40.8661 46.2372 41.194C46.7977 41.2439 47.3582 41.2439 47.9171 41.194C51.642 40.8661 62.303 39.1495 75.883 30.2112C77.2842 29.2351 78.6399 28.1984 79.9759 27.1482C84.2476 23.7905 88.6102 20.2455 91.614 15.8375C92.0245 15.2361 92.3971 14.6135 92.7213 13.9713C93.0318 13.3518 93.2984 12.705 93.3848 12.0295C93.6968 9.55888 91.202 8.70056 89.1358 7.92688C85.6957 6.64092 82.0224 5.85816 78.3945 5.16305C78.3945 5.16305 65.0599 2.08341 47.0749 1.97461C29.0914 2.08492 15.7568 5.16305 15.7568 5.16305Z" fill="white"/>
</mask>
<g mask="url(#mask0_92_2621)">
<path d="M93.6969 1.97461H0.456055V41.2423H93.6969V1.97461Z" fill="url(#paint0_linear_92_2621)"/>
</g>
<mask id="mask1_92_2621" style="mask-type:luminance" maskUnits="userSpaceOnUse" x="0" y="0" width="95" height="44">
<path d="M32.6056 17.1844H49.9544L47.0263 24.0131C46.0963 26.1815 46.3189 28.6492 47.6232 30.6166C48.9274 32.5841 51.1163 33.7597 53.4823 33.7597H66.0611L66.0262 33.7764C57.4314 37.7279 50.9542 38.6708 48.276 38.896C47.7474 38.9398 47.2172 38.9398 46.6885 38.896C43.9604 38.6678 37.2999 37.6962 28.4733 33.5618L26.5435 32.6536L25.98 32.3499L28.2734 26.9764H40.5613L43.1561 21.0513H30.8682L32.6071 17.1828L32.6056 17.1844ZM22.7368 30.4927C22.552 30.3869 22.3657 30.2736 22.1809 30.1663L27.4978 17.9777C28.8853 14.8089 30.9788 13.3325 34.0825 13.3325H71.9899L71.2568 15.0053H59.5733C57.6556 15.0053 56.0666 15.8123 54.9744 17.3052L54.6275 17.8236C54.473 18.082 54.3306 18.36 54.2019 18.6501L51.5313 24.5843C50.8663 26.1029 50.8724 27.3964 51.548 28.427C51.9979 29.1131 52.9325 29.9306 54.8259 29.9306L73.2184 29.9124C72.2762 30.47 71.3007 31.1077 70.3933 31.5973H53.5581C51.8858 31.5973 50.3998 30.7995 49.4788 29.4108C48.5578 28.0205 48.4063 26.3447 49.0622 24.814L52.3493 17.1481L53.2612 15.0189H50.9421L33.9114 15.022C32.3148 15.022 30.8712 15.9649 30.2335 17.4216L27.6841 23.1396H39.972L39.2389 24.814H26.9464L24.1728 31.2936L22.7353 30.4927H22.7368ZM20.3208 29.0451C18.9953 28.1716 17.7123 27.2468 16.4505 26.3084C15.731 25.775 15.0115 25.2356 14.295 24.6885C13.2801 23.9028 13.2589 23.9148 12.915 23.6141C10.1066 21.3883 7.45422 18.9886 5.44562 16.2036C5.05783 15.6657 4.7064 15.1111 4.40042 14.5354C4.10655 13.9823 3.85207 13.4051 3.7733 12.8006C3.47792 10.5929 5.83643 9.82524 7.7905 9.13618C11.0427 7.98622 14.5161 7.28658 17.9456 6.66702C17.9456 6.66702 30.5546 3.9168 47.5595 3.81858C64.563 3.9168 77.172 6.66702 77.172 6.66702C80.6015 7.28658 84.0733 7.98773 87.3256 9.13618C89.2811 9.82676 91.6397 10.5929 91.3443 12.8006C91.2625 13.4051 91.0095 13.9823 90.7172 14.5354C90.4097 15.1111 90.0582 15.6672 89.6704 16.2036C88.4935 17.8372 87.0908 19.3362 85.5684 20.7491C84.9504 21.3082 85.0685 21.1994 84.4838 21.7237C83.9067 22.2269 83.3175 22.718 82.7176 23.2016C81.7118 24.0206 81.3073 24.3153 81.3073 24.3153C80.4318 24.9923 79.5472 25.6556 78.6656 26.31C77.9824 26.8192 77.3416 27.206 76.6433 27.7002L76.5085 27.7878L54.8275 27.806C53.2415 27.806 52.7961 27.0156 53.4884 25.435L56.1574 19.5009C56.8497 17.9218 57.9873 17.1315 59.5748 17.1315H72.6549L75.2513 11.2064H34.0841C30.1199 11.2064 27.2721 13.1814 25.5422 17.1315L20.3389 29.0572C20.3389 29.0572 20.3268 29.0496 20.3208 29.0466M15.378 3.5632C11.6638 4.3384 7.90108 5.21484 4.37921 6.65191C2.26306 7.51627 -0.292371 8.47582 0.0272474 11.2366C0.115105 11.9922 0.387765 12.716 0.707384 13.4066C1.03912 14.1244 1.41933 14.821 1.84044 15.4934C3.89145 18.7771 6.56201 21.6331 9.41131 24.2836C9.77637 24.622 10.1414 24.9575 10.511 25.2915C11.585 26.2601 12.6772 27.2045 13.7618 28.1339C15.1311 29.308 16.5187 30.4655 17.9547 31.558C31.8619 41.548 42.7789 43.4641 46.5946 43.8313C47.1672 43.8872 47.7428 43.8872 48.3139 43.8313C52.1312 43.4641 63.0482 41.548 76.9554 31.558C78.3914 30.4655 79.7789 29.308 81.1468 28.1339C82.5858 26.9008 84.0339 25.642 85.4412 24.3349C85.8017 24.001 86.1577 23.6625 86.5106 23.321C86.8333 23.0082 87.1544 22.6954 87.471 22.378C87.7421 22.103 88.0118 21.8265 88.2784 21.5484C90.0613 19.6762 91.7018 17.68 93.0666 15.4934C93.4862 14.821 93.8679 14.1244 94.1996 13.4066C94.5193 12.716 94.7934 11.9922 94.8798 11.2366C95.1994 8.47582 92.6455 7.51627 90.5278 6.65191C87.0059 5.21484 83.2448 4.33991 79.529 3.5632C79.529 3.5632 65.8717 0.1224 47.4535 0C29.0338 0.1224 15.378 3.5632 15.378 3.5632Z" fill="white"/>
</mask>
<g mask="url(#mask1_92_2621)">
<path d="M95.1983 0H-0.291992V43.9295H95.1983V0Z" fill="url(#paint1_linear_92_2621)"/>
</g>
<mask id="mask2_92_2621" style="mask-type:luminance" maskUnits="userSpaceOnUse" x="109" y="10" width="168" height="13">
<path d="M109.136 10.8398V22.6911H111.211V17.8656H117.164V15.9683H111.211V12.7344H117.926V10.8398H109.136ZM119.801 22.6911H121.874V10.8398H119.801V22.6911ZM126.58 12.7344H129.604C131.138 12.7344 132.049 13.4306 132.049 14.6981V14.7353C132.049 15.9338 131.101 16.715 129.62 16.715H126.58V12.7371V12.7344ZM124.508 10.8398V22.6911H126.58V18.5591H129.183L132.084 22.6911H134.529L131.343 18.203C132.997 17.73 134.159 16.5609 134.159 14.6131V14.5786C134.159 13.5449 133.804 12.6653 133.178 12.0223C132.422 11.2756 131.255 10.8371 129.771 10.8371H124.508V10.8398ZM145.359 10.8398V12.769H149.105V22.6911H151.196V12.769H154.941V10.8398H145.357H145.359ZM180.787 10.8398V15.7663H175.153V10.8398H173.078V22.6911H175.153V17.6955H180.787V22.6911H182.864V10.8398H180.787ZM199.315 22.6911H201.388V10.8398H199.315V22.6911ZM215.947 10.8398V22.6911H224.788V20.8284H218.022V17.645H223.944V15.7849H218.022V12.7025H224.703V10.8398H215.947ZM258.071 12.7344H261.095C262.629 12.7344 263.54 13.4306 263.54 14.6981V14.7353C263.54 15.9338 262.597 16.715 261.11 16.715H258.071V12.7371V12.7344ZM255.999 10.8398V22.6911H258.071V18.5591H260.671L263.574 22.6911H266.02L262.834 18.203C264.485 17.73 265.649 16.5609 265.649 14.6131V14.5786C265.649 13.5449 265.298 12.6653 264.669 12.0223C263.91 11.2756 262.749 10.8371 261.265 10.8371H256.002L255.999 10.8398ZM248.306 13.242L250.346 17.9825H246.282L248.306 13.242ZM247.376 10.7521L242.182 22.6911H244.308L245.523 19.8293H251.106L252.304 22.6911H254.494L249.3 10.7521H247.376ZM135.863 14.1056V14.1401C135.863 16.3244 137.28 17.0684 139.795 17.6796C141.987 18.1871 142.459 18.6441 142.459 19.4918V19.5237C142.459 20.4218 141.652 21.0144 140.368 21.0144C138.9 21.0144 137.771 20.4564 136.641 19.4759L135.392 20.9639C136.809 22.2341 138.511 22.8612 140.317 22.8612C142.794 22.8612 144.534 21.5405 144.534 19.3217V19.2899C144.534 17.3261 143.234 16.428 140.738 15.8195C138.479 15.2774 137.938 14.8709 137.938 13.9568V13.9249C137.938 13.1463 138.65 12.5192 139.862 12.5192C140.94 12.5192 142.006 12.9417 143.069 13.7362L144.182 12.1631C142.983 11.1985 141.617 10.6724 139.896 10.6724C137.552 10.6724 135.866 12.0781 135.866 14.1082M267.357 14.1082V14.1428C267.357 16.327 268.771 17.0711 271.286 17.6822C273.481 18.1898 273.955 18.6468 273.955 19.4945V19.5264C273.955 20.4245 273.145 21.0171 271.861 21.0171C270.396 21.0171 269.267 20.459 268.135 19.4785L266.885 20.9666C268.302 22.2367 270.005 22.8639 271.811 22.8639C274.29 22.8639 276.027 21.5432 276.027 19.3244V19.2925C276.027 17.3288 274.73 16.4307 272.234 15.8221C269.975 15.2801 269.435 14.8735 269.435 13.9594V13.9275C269.435 13.149 270.143 12.5218 271.355 12.5218C272.434 12.5218 273.497 12.9443 274.56 13.7389L275.673 12.1658C274.474 11.2012 273.11 10.6751 271.39 10.6751C269.046 10.6751 267.36 12.0807 267.36 14.1109M160.636 16.7708V16.8053C160.636 20.2066 163.198 22.8984 166.64 22.8984C168.851 22.8984 170.198 22.0853 171.429 20.7992L170.097 19.444C169.085 20.3926 168.158 20.9852 166.706 20.9852C164.447 20.9852 162.809 19.0879 162.809 16.7681V16.7362C162.809 14.4165 164.445 12.5537 166.706 12.5537C168.057 12.5537 169.069 13.1463 170.015 14.0258L171.346 12.4846C170.217 11.4005 168.901 10.6379 166.725 10.6379C163.148 10.6379 160.633 13.3961 160.633 16.7681M187.036 16.7681V16.7362C187.036 14.4297 188.671 12.5537 191.018 12.5537C193.365 12.5537 195.032 14.4669 195.032 16.7681V16.8027C195.032 19.1038 193.397 20.9825 191.05 20.9825C188.703 20.9825 187.036 19.0693 187.036 16.7655M184.859 16.7655V16.8C184.859 20.1322 187.39 22.8931 191.015 22.8931C194.641 22.8931 197.206 20.1003 197.206 16.7628V16.7309C197.206 13.3934 194.675 10.6352 191.05 10.6352C187.425 10.6352 184.859 13.428 184.859 16.7655ZM203.503 16.7655V16.8C203.503 20.2013 206.065 22.8931 209.507 22.8931C211.718 22.8931 213.068 22.08 214.299 20.7939L212.967 19.4387C211.955 20.3873 211.025 20.9799 209.573 20.9799C207.314 20.9799 205.679 19.0826 205.679 16.7628V16.7309C205.679 14.4112 207.317 12.5484 209.573 12.5484C210.926 12.5484 211.936 13.141 212.882 14.0205L214.213 12.4793C213.081 11.3952 211.768 10.6325 209.592 10.6325C206.017 10.6325 203.503 13.3908 203.503 16.7628M230.75 16.7628V16.7974C230.75 20.1986 233.315 22.8904 236.756 22.8904C238.962 22.8904 240.315 22.0773 241.546 20.7912L240.214 19.436C239.202 20.3846 238.275 20.9772 236.823 20.9772C234.561 20.9772 232.926 19.0799 232.926 16.7602V16.7283C232.926 14.4085 234.561 12.5458 236.823 12.5458C238.173 12.5458 239.183 13.1383 240.131 14.0179L241.463 12.4767C240.334 11.3925 239.015 10.6299 236.839 10.6299C233.264 10.6299 230.75 13.3881 230.75 16.7602" fill="white"/>
</mask>
<g mask="url(#mask2_92_2621)">
<path d="M276.019 10.6358H109.136V22.8937H276.019V10.6358Z" fill="url(#paint2_linear_92_2621)"/>
</g>
<path d="M278.656 5.9265C278.8 5.91322 278.989 5.90524 279.213 5.90524C279.908 5.90524 280.257 6.12048 280.257 6.55361C280.257 6.98674 279.94 7.20995 279.306 7.20995H278.659V5.92916L278.656 5.9265ZM278.126 5.57309V9.23212H278.656V7.61386H279.33C279.873 7.61386 280.222 8.15328 280.371 9.23212H280.901C280.811 8.67144 280.71 8.26488 280.592 8.0151C280.481 7.76266 280.318 7.574 280.11 7.44379C280.547 7.25778 280.768 6.94954 280.768 6.52173C280.768 6.2002 280.627 5.9451 280.347 5.75644C280.065 5.56777 279.687 5.47477 279.21 5.47477C278.89 5.47477 278.528 5.50931 278.126 5.57309ZM276.528 7.35876C276.528 5.80958 277.788 4.5527 279.341 4.5527C280.893 4.5527 282.153 5.80958 282.153 7.35876C282.153 8.90793 280.891 10.1648 279.341 10.1648C277.79 10.1648 276.528 8.90528 276.528 7.35876ZM276.959 4.98318C276.323 5.61826 275.974 6.46061 275.974 7.35876C275.974 8.25691 276.323 9.09925 276.959 9.73168C277.593 10.3641 278.44 10.7149 279.341 10.7149C280.241 10.7149 281.085 10.3668 281.719 9.73168C282.356 9.0966 282.707 8.25159 282.707 7.35876C282.707 6.46592 282.356 5.61826 281.719 4.98318C281.085 4.34809 280.238 4 279.341 4C278.443 4 277.593 4.34809 276.959 4.98318Z" fill="url(#paint3_linear_92_2621)"/>
<path d="M150.434 37.0063C150.434 37.2667 150.381 37.4953 150.277 37.6946C150.173 37.8912 150.029 38.0559 149.845 38.1915C149.662 38.3243 149.449 38.428 149.209 38.497C148.966 38.5661 148.711 38.6007 148.436 38.6007H145.442V32.4199H148.759C148.974 32.4199 149.169 32.4651 149.342 32.5581C149.515 32.6511 149.664 32.7707 149.787 32.9195C149.909 33.0683 150.003 33.2357 150.069 33.4244C150.136 33.613 150.17 33.8044 150.17 33.9957C150.17 34.2986 150.096 34.5803 149.944 34.8433C149.792 35.1091 149.571 35.303 149.281 35.4306C149.635 35.5342 149.917 35.7229 150.123 35.9939C150.33 36.2623 150.431 36.6024 150.431 37.009L150.434 37.0063ZM146.646 33.4456V35.0028H148.253C148.455 35.0028 148.628 34.9337 148.772 34.7929C148.916 34.6547 148.985 34.4634 148.985 34.2189C148.985 33.9744 148.919 33.7911 148.788 33.6529C148.657 33.5147 148.495 33.443 148.303 33.443H146.646V33.4456ZM149.222 36.7805C149.222 36.6715 149.204 36.5652 149.166 36.4616C149.129 36.3606 149.078 36.2729 149.014 36.1959C148.95 36.1215 148.876 36.0604 148.788 36.0178C148.7 35.9753 148.604 35.9541 148.5 35.9541H146.649V37.5803H148.439C148.551 37.5803 148.652 37.559 148.748 37.5192C148.844 37.4767 148.927 37.4209 148.996 37.3491C149.065 37.2774 149.121 37.1923 149.161 37.094C149.201 36.9957 149.222 36.8921 149.222 36.7805Z" fill="white"/>
<path d="M154.432 37.58C154.717 37.58 154.957 37.5216 155.152 37.4073C155.346 37.2904 155.503 37.1416 155.623 36.9556C155.743 36.7696 155.826 36.557 155.876 36.3152C155.924 36.0734 155.951 35.8262 155.951 35.5711V32.4196H157.147V35.5711C157.147 35.9936 157.096 36.3922 156.995 36.7642C156.894 37.1363 156.734 37.4604 156.515 37.7395C156.297 38.0185 156.017 38.239 155.674 38.4011C155.33 38.5632 154.92 38.6456 154.443 38.6456C153.966 38.6456 153.529 38.5605 153.183 38.3878C152.837 38.2178 152.557 37.9892 152.341 37.7076C152.126 37.4259 151.971 37.0991 151.875 36.727C151.779 36.355 151.731 35.9697 151.731 35.5685V32.417H152.935V35.5685C152.935 35.8316 152.959 36.0813 153.01 36.3231C153.061 36.565 153.143 36.7775 153.263 36.9635C153.383 37.1495 153.537 37.2984 153.729 37.4126C153.921 37.5242 154.158 37.5827 154.435 37.5827L154.432 37.58Z" fill="white"/>
<path d="M159.493 32.416L161.019 35.3921L162.572 32.416H163.872L161.621 36.4364V38.5968H160.425V36.4205L158.183 32.416H159.49H159.493Z" fill="white"/>
<path d="M167.567 39.7293V31.8506H168.561V39.7293H167.567Z" fill="white"/>
<path d="M176.555 34.0352C176.515 33.9954 176.44 33.9396 176.331 33.8705C176.224 33.8014 176.091 33.7323 175.939 33.6659C175.785 33.5994 175.617 33.5436 175.439 33.4958C175.257 33.448 175.074 33.4267 174.887 33.4267C174.557 33.4267 174.309 33.4878 174.147 33.6101C173.984 33.7323 173.902 33.905 173.902 34.1256C173.902 34.2531 173.934 34.3594 173.992 34.4445C174.053 34.5295 174.141 34.6039 174.258 34.665C174.376 34.7288 174.522 34.7872 174.698 34.8377C174.876 34.8909 175.082 34.9467 175.313 35.0025C175.617 35.0848 175.891 35.1699 176.139 35.2629C176.387 35.3559 176.595 35.4728 176.768 35.611C176.938 35.7492 177.071 35.9166 177.165 36.1106C177.258 36.3045 177.303 36.5437 177.303 36.828C177.303 37.1602 177.242 37.4418 177.117 37.6783C176.991 37.9122 176.824 38.1035 176.611 38.2496C176.397 38.3931 176.152 38.4994 175.878 38.5685C175.601 38.6349 175.313 38.6695 175.01 38.6695C174.544 38.6695 174.085 38.6004 173.63 38.4596C173.174 38.3187 172.769 38.1221 172.407 37.867L172.94 36.8307C172.993 36.8838 173.086 36.9502 173.222 37.0353C173.358 37.1203 173.521 37.2027 173.707 37.2877C173.894 37.3727 174.099 37.4418 174.328 37.5003C174.554 37.5587 174.789 37.588 175.026 37.588C175.689 37.588 176.019 37.3754 176.019 36.9529C176.019 36.82 175.982 36.7058 175.905 36.6128C175.83 36.5198 175.721 36.4374 175.582 36.3683C175.444 36.2992 175.273 36.2354 175.076 36.177C174.879 36.1185 174.658 36.0547 174.413 35.9857C174.117 35.9033 173.859 35.8156 173.641 35.7199C173.422 35.6243 173.241 35.51 173.094 35.3798C172.948 35.2496 172.839 35.0981 172.767 34.9254C172.695 34.7554 172.658 34.5507 172.658 34.3116C172.658 33.998 172.716 33.719 172.831 33.4746C172.948 33.2301 173.108 33.0281 173.316 32.8661C173.523 32.704 173.763 32.5817 174.035 32.4967C174.309 32.4117 174.602 32.3691 174.916 32.3691C175.353 32.3691 175.755 32.4382 176.12 32.5738C176.488 32.7119 176.808 32.8714 177.082 33.0574L176.549 34.0326L176.555 34.0352Z" fill="white"/>
<path d="M182.95 37.5445V38.5968H178.648V32.416H182.873V33.4683H179.852V34.9563H182.463V35.9315H179.852V37.5418H182.95V37.5445Z" fill="white"/>
<path d="M184.33 38.5968V32.416H185.534V37.5418H188.693V38.5941H184.33V38.5968Z" fill="white"/>
<path d="M189.862 38.5977V32.417H191.066V37.5428H194.225V38.5951H189.862V38.5977Z" fill="white"/>
<path d="M197.971 39.7293V31.8506H198.964V39.7293H197.971Z" fill="white"/>
<path d="M207.901 33.4693H205.919V38.5977H204.723V33.4693H202.741V32.417H207.898V33.4693H207.901Z" fill="white"/>
<path d="M209.104 38.5968V32.416H211.845C212.13 32.416 212.394 32.4745 212.637 32.594C212.879 32.7136 213.087 32.8704 213.26 33.0644C213.433 33.2584 213.572 33.4789 213.67 33.726C213.769 33.9732 213.817 34.2203 213.817 34.4701C213.817 34.8713 213.715 35.2354 213.516 35.5622C213.316 35.889 213.044 36.1255 212.7 36.2717L214.115 38.5968H212.762L211.496 36.5241H210.308V38.5968H209.104ZM210.308 35.4719H211.819C211.928 35.4719 212.032 35.4453 212.128 35.3921C212.224 35.339 212.306 35.2672 212.376 35.1796C212.445 35.0892 212.501 34.9829 212.541 34.8607C212.581 34.7384 212.602 34.6082 212.602 34.4701C212.602 34.3319 212.578 34.1911 212.533 34.0688C212.487 33.9466 212.423 33.8403 212.346 33.75C212.266 33.6596 212.178 33.5905 212.075 33.54C211.971 33.4895 211.869 33.4656 211.766 33.4656H210.308V35.4692V35.4719Z" fill="white"/>
<path d="M217.107 32.416H218.172L220.53 38.5968H219.291L218.716 37.0556H216.55L215.983 38.5968H214.744L217.109 32.416H217.107ZM218.495 36.2106L217.64 33.7818L216.75 36.2106H218.495Z" fill="white"/>
<path d="M221.646 38.5977V32.417H223.896C224.402 32.417 224.847 32.4967 225.228 32.6615C225.609 32.8235 225.926 33.0441 226.184 33.3231C226.44 33.6021 226.632 33.929 226.76 34.3036C226.888 34.6783 226.952 35.0769 226.952 35.4994C226.952 35.9697 226.88 36.3949 226.739 36.7749C226.597 37.1549 226.39 37.479 226.123 37.7501C225.854 38.0211 225.535 38.2284 225.159 38.3772C224.783 38.526 224.362 38.6004 223.896 38.6004H221.646V38.5977ZM225.737 35.4994C225.737 35.2044 225.697 34.9307 225.614 34.681C225.532 34.4312 225.415 34.2159 225.257 34.0353C225.1 33.8546 224.906 33.7164 224.677 33.6181C224.448 33.5197 224.187 33.4693 223.896 33.4693H222.85V37.5428H223.896C224.195 37.5428 224.456 37.4897 224.687 37.386C224.917 37.2824 225.108 37.1389 225.263 36.9556C225.417 36.7722 225.535 36.557 225.617 36.3072C225.7 36.0574 225.74 35.7864 225.74 35.4967L225.737 35.4994Z" fill="white"/>
<path d="M232.631 37.5445V38.5968H228.329V32.416H232.554V33.4683H229.533V34.9563H232.144V35.9315H229.533V37.5418H232.631V37.5445Z" fill="white"/>
<path d="M233.872 36.7349V35.6826H236.514V36.7349H233.872Z" fill="white"/>
<path d="M238.094 38.5977V32.417H239.298V38.5977H238.094Z" fill="white"/>
<path d="M242.23 34.6387V38.6007H241.026V32.4199H241.959L245.187 36.4749V32.4279H246.391V38.6007H245.413L242.228 34.6387H242.23Z" fill="white"/>
<defs>
<linearGradient id="paint0_linear_92_2621" x1="0.725777" y1="22.101" x2="93.28" y2="22.101" gradientUnits="userSpaceOnUse">
<stop stop-color="#683C22"/>
<stop offset="0.24" stop-color="#683C22"/>
<stop offset="0.59" stop-color="#744928"/>
<stop offset="1" stop-color="#624031"/>
</linearGradient>
<linearGradient id="paint1_linear_92_2621" x1="0.0199163" y1="21.6906" x2="94.8093" y2="21.6906" gradientUnits="userSpaceOnUse">
<stop stop-color="#E8C77C"/>
<stop offset="0.24" stop-color="#A88140"/>
<stop offset="0.41" stop-color="#D0AE68"/>
<stop offset="0.59" stop-color="#906A30"/>
<stop offset="1" stop-color="#E8CA87"/>
</linearGradient>
<linearGradient id="paint2_linear_92_2621" x1="109.121" y1="17.5813" x2="275.796" y2="17.5813" gradientUnits="userSpaceOnUse">
<stop stop-color="#E8C77C"/>
<stop offset="0.24" stop-color="#A88140"/>
<stop offset="0.41" stop-color="#D0AE68"/>
<stop offset="0.59" stop-color="#906A30"/>
<stop offset="1" stop-color="#E8CA87"/>
</linearGradient>
<linearGradient id="paint3_linear_92_2621" x1="279.341" y1="10.7149" x2="279.341" y2="3.99734" gradientUnits="userSpaceOnUse">
<stop stop-color="#E8C77C"/>
<stop offset="0.45" stop-color="#D0AE68"/>
<stop offset="1" stop-color="#E8CA87"/>
</linearGradient>
</defs>
</svg>
