<svg width="23" height="17" viewBox="0 0 23 17" fill="none" xmlns="http://www.w3.org/2000/svg">
<g clip-path="url(#clip0_63_1449)">
<path d="M22.8934 13.1733C22.7632 13.3816 22.5711 13.4532 22.3074 13.4467C21.7931 13.4337 21.2755 13.4467 20.7611 13.4435C20.4225 13.4435 20.2467 13.2905 20.2435 12.9812C20.237 12.5319 20.2337 12.0794 20.2435 11.6302C20.2467 11.4772 20.1686 11.4674 20.0384 11.4707C19.9082 11.4707 19.7877 11.4609 19.817 11.6335C19.931 12.3399 19.5892 12.851 19.0292 13.3263C18.0949 14.1206 17.2095 14.967 16.3142 15.8004C15.9985 16.0934 15.6338 16.2236 15.1846 16.2203C13.4006 16.2138 11.6199 16.2138 9.83598 16.2203C9.36069 16.2203 8.97981 16.0771 8.67055 15.745C8.11062 15.1428 7.5279 14.5568 6.96472 13.9578C6.87682 13.8634 6.78892 13.8276 6.65545 13.8309C6.33317 13.8374 6.01088 13.8374 5.6886 13.8309C5.0245 13.8146 4.43201 13.2839 4.41574 12.6882C4.40597 12.3399 4.40271 11.9915 4.41574 11.6465C4.42225 11.4967 4.36691 11.4544 4.20739 11.4674C4.05113 11.4805 3.89162 11.4805 3.73536 11.4674C3.56608 11.4544 3.53352 11.5163 3.53678 11.653C3.54329 12.1999 3.54003 12.7468 3.53678 13.2937C3.53678 13.7104 3.40005 13.8341 2.93453 13.8341C2.42018 13.8341 1.90257 13.8341 1.38821 13.8341C1.04965 13.8341 0.890137 13.6876 0.890137 13.3849C0.890137 11.3112 0.890137 9.24074 0.890137 7.16705C0.890137 6.86429 1.0464 6.72106 1.38821 6.7178C1.93186 6.7178 2.47552 6.7178 3.01917 6.7178C3.3675 6.7178 3.53027 6.86429 3.53352 7.18007C3.53678 7.74651 3.54003 8.31295 3.53352 8.87939C3.53352 9.03239 3.56608 9.10726 3.75489 9.08448C3.96649 9.06169 4.23994 9.16261 4.37342 9.04216C4.49712 8.92822 4.40271 8.68732 4.40923 8.50176C4.41574 8.32271 4.40923 8.14041 4.40923 7.96136C4.41574 7.25494 4.98543 6.73408 5.76998 6.71454C6.06948 6.70803 6.37223 6.70803 6.67173 6.71454C6.79869 6.71454 6.88007 6.67874 6.96472 6.59084C7.54743 5.97882 8.13666 5.37332 8.71612 4.7613C8.99609 4.46832 9.34441 4.33159 9.77087 4.33159C10.4154 4.33159 11.06 4.32834 11.7046 4.33485C11.8576 4.33485 11.8999 4.29578 11.8934 4.16231C11.8804 3.8856 11.8836 3.60889 11.8934 3.33218C11.8999 3.19871 11.8576 3.15639 11.7046 3.15965C11.2163 3.16941 10.7312 3.1629 10.2429 3.15965C9.849 3.15965 9.68949 3.01966 9.68949 2.67134C9.68949 2.19605 9.68949 1.7175 9.68949 1.24222C9.68949 0.91342 9.85226 0.773438 10.2169 0.773438C12.2157 0.773438 14.2112 0.773438 16.2101 0.773438C16.5649 0.773438 16.7342 0.929697 16.7374 1.24873C16.7374 1.72401 16.7374 2.20256 16.7374 2.67785C16.7374 3.00339 16.5616 3.15639 16.1905 3.15965C15.7022 3.15965 15.2172 3.16616 14.7288 3.15965C14.5824 3.15965 14.527 3.18895 14.5335 3.32893C14.5465 3.59261 14.5465 3.8563 14.5335 4.11999C14.5238 4.28602 14.5726 4.3381 14.7679 4.33485C16.0212 4.32508 17.2746 4.32834 18.5279 4.33159C19.1367 4.33159 19.6119 4.65713 19.7715 5.16823C19.817 5.31147 19.817 5.46122 19.817 5.60771C19.817 6.43784 19.8203 7.26796 19.817 8.09809C19.817 8.24458 19.8561 8.29992 20.0319 8.29667C20.2012 8.29667 20.25 8.25109 20.2467 8.09809C20.237 7.66838 20.2402 7.23541 20.2467 6.8057C20.2467 6.46388 20.416 6.30762 20.7969 6.30762C21.2917 6.30762 21.7866 6.31739 22.2781 6.30436C22.5418 6.29785 22.7502 6.36296 22.8966 6.5648V13.1667L22.8934 13.1733ZM22.0014 9.8853C22.0014 9.02262 21.9982 8.15994 22.0047 7.29726C22.0047 7.141 21.9526 7.09217 21.7866 7.10845C21.6433 7.12147 21.5001 7.12147 21.3568 7.10845C21.1843 7.09217 21.1225 7.13775 21.1257 7.30703C21.1387 7.74976 21.1322 8.19575 21.129 8.63849C21.129 8.94449 20.9727 9.08773 20.6309 9.09099C20.25 9.09424 19.8724 9.09099 19.4915 9.09099C19.065 9.09099 18.9283 8.96403 18.9251 8.58314C18.9251 7.58699 18.9251 6.58758 18.9251 5.59143C18.9251 5.2431 18.8111 5.14219 18.427 5.14219C15.5557 5.14219 12.6845 5.14219 9.81319 5.14219C9.6081 5.14219 9.46486 5.20078 9.33465 5.34077C8.70961 6.00161 8.07155 6.65595 7.44651 7.31679C7.3163 7.45678 7.16329 7.52188 6.96146 7.51863C6.58058 7.51537 6.20295 7.51863 5.82207 7.51863C5.49002 7.51863 5.29795 7.68791 5.29469 7.9809C5.29469 9.51093 5.29469 11.0442 5.29469 12.5743C5.29469 12.8738 5.477 13.0365 5.8123 13.0398C6.19318 13.0398 6.57081 13.0398 6.95169 13.0398C7.15027 13.0398 7.30653 13.0984 7.44 13.2384C8.07155 13.9025 8.71286 14.5633 9.34441 15.2274C9.47137 15.3609 9.61136 15.4195 9.80668 15.4195C11.6037 15.4162 13.4006 15.4162 15.1976 15.4195C15.3929 15.4195 15.5362 15.3674 15.6729 15.2437C16.6919 14.3029 17.7173 13.3686 18.7428 12.4343C18.873 12.3171 18.9316 12.1836 18.9283 12.0208C18.9218 11.7116 18.9218 11.4023 18.9283 11.0931C18.9348 10.8261 19.1041 10.6731 19.3938 10.6699C19.817 10.6666 20.2402 10.6666 20.6602 10.6699C20.9499 10.6731 21.1225 10.8326 21.1257 11.0963C21.129 11.4186 21.1257 11.7409 21.1257 12.0599C21.1257 12.2455 21.0378 12.4864 21.1615 12.6003C21.295 12.7208 21.5684 12.6198 21.78 12.6426C21.9721 12.6654 21.9982 12.5873 21.9982 12.4343C21.9916 11.5846 21.9949 10.735 21.9949 9.8853H22.0014ZM1.78212 10.2564C1.78212 10.9824 1.77886 11.7083 1.78212 12.4375C1.78212 12.6329 1.6812 12.89 1.83095 13.0072C1.97419 13.1212 2.25741 13.0268 2.47552 13.043C2.61875 13.0528 2.65456 13.004 2.65456 12.877C2.64805 12.3041 2.65131 11.7311 2.65456 11.1614C2.65456 10.8001 2.80431 10.6666 3.21449 10.6666C3.55631 10.6666 3.90138 10.6601 4.2432 10.6666C4.37342 10.6666 4.41899 10.634 4.41248 10.5136C4.40271 10.3541 4.40271 10.1913 4.41248 10.0318C4.42225 9.90809 4.36365 9.88205 4.23994 9.88205C3.87534 9.88856 3.51073 9.8853 3.14613 9.88205C2.8271 9.88205 2.65456 9.72254 2.65456 9.43931C2.65456 8.99007 2.65782 8.53757 2.65456 8.08832C2.65456 7.89951 2.74897 7.64884 2.60899 7.53491C2.47226 7.42422 2.19881 7.51863 1.98395 7.4991C1.82118 7.48607 1.77886 7.54142 1.77886 7.68465C1.78537 8.54082 1.78212 9.39374 1.78212 10.2499V10.2564ZM13.2151 1.58403C12.398 1.58403 11.5841 1.58403 10.767 1.58403C10.6238 1.58403 10.5587 1.61333 10.5684 1.75331C10.5815 1.90632 10.5782 2.06258 10.5684 2.21558C10.5619 2.33603 10.6108 2.36858 10.741 2.36858C11.2195 2.36207 11.7013 2.36858 12.1799 2.36858C12.6324 2.36858 12.7789 2.50206 12.7789 2.91549C12.7789 3.33869 12.7821 3.76515 12.7789 4.18835C12.7789 4.30229 12.8114 4.35112 12.9481 4.34136C13.1207 4.33159 13.2932 4.33159 13.4625 4.34136C13.609 4.35112 13.6611 4.31206 13.6578 4.17208C13.6481 3.72283 13.6513 3.27033 13.6578 2.82108C13.6578 2.51833 13.8238 2.36858 14.1559 2.36533C14.501 2.36533 14.8428 2.36533 15.1879 2.36533C15.3995 2.36533 15.6827 2.44671 15.8096 2.33277C15.9464 2.20907 15.8324 1.95515 15.8552 1.75982C15.8747 1.60356 15.7999 1.58403 15.6469 1.58403C14.8395 1.59054 14.0289 1.58403 13.2183 1.58403H13.2151Z" fill="#B49758"/>
<path d="M14.9829 10.0088C13.811 11.6203 12.6748 13.1829 11.5387 14.7454C11.5257 14.7389 11.5094 14.7324 11.4964 14.7227C11.6494 14.2571 11.8024 13.7916 11.9587 13.3261C12.2061 12.5806 12.4535 11.8351 12.7074 11.0929C12.7595 10.9399 12.753 10.8845 12.5642 10.8878C11.9619 10.9008 11.3629 10.8878 10.7607 10.8943C10.5979 10.8943 10.5816 10.8585 10.6532 10.7185C11.3369 9.36101 12.0172 7.997 12.6976 6.63624C12.7367 6.55811 12.7692 6.48975 12.8799 6.48975C13.544 6.49626 14.2114 6.493 14.8755 6.49626C14.895 6.49626 14.9113 6.50928 14.9569 6.5223C14.2342 7.67797 13.518 8.82712 12.7823 10.0056H14.9797L14.9829 10.0088Z" fill="#B49758"/>
</g>
<defs>
<clipPath id="clip0_63_1449">
<rect width="22" height="15.4404" fill="white" transform="translate(0.893066 0.779785)"/>
</clipPath>
</defs>
</svg>
