<svg width="113" height="112" viewBox="0 0 113 112" fill="none" xmlns="http://www.w3.org/2000/svg">
<rect x="3" y="2.5" width="107" height="107" rx="53.5" stroke="black" stroke-width="5"/>
<path d="M58.318 54.5694C58.318 57.8895 58.3243 61.2064 58.3117 64.5265C58.3117 64.8888 58.3936 65.0148 58.7747 65.0022C59.6788 64.977 60.5829 64.9833 61.4869 65.0085C62.4729 65.0337 63.0336 65.5377 63.2257 66.511C63.2981 66.8733 63.3832 67.2324 63.4651 67.5946C63.5344 67.8876 63.5123 68.0577 63.1217 68.0514C62.2492 68.0419 62.2492 68.0608 62.0665 67.1946C61.8712 66.2653 61.868 66.2622 60.9073 66.2622C57.8833 66.2622 54.8624 66.2622 51.8384 66.2622C51.0635 66.2622 51.0005 66.3189 50.8619 67.0812C50.8588 67.0969 50.8588 67.1095 50.8557 67.1253C50.6698 68.1301 50.6698 68.1238 49.6429 68.0482C49.4224 68.0325 49.3468 67.9506 49.3909 67.749C49.5138 67.2009 49.5988 66.6402 49.7752 66.1078C50.0178 65.3739 50.61 65.0431 51.347 65.0148C52.2952 64.9801 53.2433 64.9896 54.1915 65.0022C54.4939 65.0053 54.6042 64.9234 54.6042 64.6053C54.5947 57.8926 54.5979 51.18 54.6042 44.4705C54.6042 44.1712 54.5034 44.1019 54.2199 44.1019C51.6873 44.1114 49.1515 44.1145 46.6189 44.1019C46.2787 44.0988 46.2315 44.187 46.3228 44.502C47.6112 48.9939 48.8869 53.4889 50.1658 57.9808C50.2067 58.1257 50.2698 58.2549 50.3832 58.3588C50.8053 58.7431 50.8556 59.2314 50.7391 59.748C50.5784 60.4693 50.4021 61.1875 50.2162 61.9026C50.0335 62.6176 49.5736 62.9641 48.8365 62.9641C46.0204 62.9641 43.2043 62.9641 40.3914 62.9641C39.6606 62.9641 39.2133 62.6145 39.0306 61.89C38.8447 61.1592 38.6746 60.4252 38.4825 59.6944C38.3691 59.2597 38.4352 58.8534 38.7124 58.5195C38.9298 58.258 39.04 57.9682 39.144 57.6595C40.741 52.8621 42.3475 48.0646 43.9351 43.2609C44.0548 42.8923 44.2281 42.7978 44.5935 42.7978C47.7655 42.8104 50.9344 42.7978 54.1065 42.8136C54.4876 42.8167 54.642 42.7317 54.6042 42.3285C54.5664 41.9473 54.5947 41.5599 54.5978 41.1724C54.6073 40.0384 55.3444 39.2383 56.3997 39.2163C57.4706 39.1942 58.2676 39.9754 58.318 41.1189C58.3369 41.5315 58.3432 41.9505 58.3148 42.3631C58.2928 42.7096 58.403 42.8199 58.759 42.8167C60.6994 42.801 62.6398 42.8073 64.5834 42.8073C65.8276 42.8073 67.0718 42.8262 68.3161 42.7947C68.7224 42.7852 68.8737 42.9364 68.9934 43.2955C70.5967 48.1402 72.2127 52.9786 73.8255 57.8202C73.9011 58.047 73.9955 58.2486 74.1782 58.4218C74.5279 58.762 74.5909 59.1999 74.4869 59.6566C74.3043 60.4473 74.109 61.2379 73.9011 62.0254C73.7467 62.6145 73.271 62.961 72.6568 62.961C69.7808 62.9641 66.9081 62.9641 64.0321 62.961C63.4368 62.961 62.958 62.6302 62.8036 62.0601C62.5768 61.219 62.3784 60.3685 62.1862 59.518C62.1201 59.2219 62.1358 58.8975 62.3437 58.6675C62.8383 58.1226 62.9296 57.4201 63.1217 56.7618C64.3187 52.7077 65.5 48.6474 66.6907 44.587C66.8325 44.1019 66.8356 44.1019 66.3379 44.1019C63.8179 44.1019 61.3011 44.1082 58.781 44.0925C58.403 44.0893 58.3148 44.2059 58.318 44.5681C58.3211 47.9008 58.318 51.2335 58.318 54.5694ZM44.9589 44.4169C44.8864 44.5681 44.8486 44.6311 44.8266 44.6973C43.3933 48.9876 41.9632 53.281 40.5237 57.5682C40.4071 57.9178 40.4827 57.9966 40.8355 57.9966C43.3839 57.984 45.9322 57.9903 48.4774 57.9903C48.5782 57.9903 48.679 57.9745 48.8208 57.9619C47.5387 53.4637 46.263 48.9907 44.9589 44.4169ZM68.0798 44.6784C67.9097 44.754 67.9255 44.8926 67.894 44.9997C66.6592 49.2112 65.4338 53.4259 64.1927 57.6375C64.0919 57.9777 64.2085 57.9966 64.4857 57.9966C66.99 57.9903 69.4911 57.9934 71.9953 57.9934C72.5245 57.9934 72.5245 57.9934 72.3575 57.4926C71.3433 54.4497 70.3258 51.4068 69.3084 48.367C68.902 47.1385 68.4925 45.9132 68.0798 44.6784ZM57.0108 54.5631C57.0108 51.2335 56.9982 47.9008 57.0234 44.5713C57.0265 44.0484 56.765 44.1019 56.428 44.0956C56.0752 44.0893 55.839 44.0736 55.8421 44.5807C55.861 51.2272 55.861 57.8737 55.8421 64.5234C55.8421 64.999 56.0437 65.0085 56.3934 64.999C56.7336 64.9896 57.0296 65.0746 57.0265 64.5139C56.995 61.197 57.0108 57.88 57.0108 54.5631ZM68.3287 59.2881C66.9396 59.2881 65.5472 59.2881 64.1581 59.2881C63.6824 59.2881 63.5029 59.5023 63.6037 59.9779C63.7045 60.4536 63.8368 60.9229 63.9376 61.3986C63.988 61.6285 64.0983 61.7073 64.3345 61.7073C67.012 61.701 69.6895 61.701 72.367 61.7041C72.5528 61.7041 72.682 61.6632 72.7261 61.4647C72.8458 60.9481 72.9844 60.4347 73.0852 59.9118C73.1671 59.4802 72.9844 59.2881 72.5466 59.2881C71.1385 59.2881 69.7336 59.2881 68.3287 59.2881ZM44.6029 59.2881C43.1823 59.2881 41.7616 59.2881 40.341 59.2881C39.9252 59.2881 39.7708 59.455 39.8527 59.8519C39.9661 60.3874 40.1079 60.9135 40.2307 61.4458C40.2748 61.6348 40.3693 61.7041 40.5709 61.7041C43.2642 61.6978 45.9542 61.701 48.6475 61.701C48.8271 61.701 48.9562 61.6726 49.0034 61.4616C49.1074 60.9702 49.2554 60.4882 49.3436 59.9968C49.4318 59.518 49.2114 59.2881 48.7294 59.2881C47.3529 59.2881 45.9763 59.2881 44.6029 59.2881ZM57.0108 41.8213C57.0108 41.6134 57.0076 41.4087 57.0108 41.2008C57.0202 40.8228 56.8816 40.5645 56.4721 40.5361C56.0973 40.5109 55.8831 40.7346 55.861 41.185C55.8453 41.5252 55.8578 41.8654 55.8578 42.2056C55.8578 42.8041 55.8578 42.8041 56.45 42.8041C57.0107 42.8041 57.0108 42.8041 57.0108 42.2245C57.0108 42.0891 57.0108 41.9568 57.0108 41.8213Z" fill="#9F8A60"/>
<path d="M56.4467 73.5132C53.5298 73.5132 50.6129 73.5132 47.696 73.5132C46.5494 73.5132 46.0265 72.8769 46.2186 71.746C46.3478 70.9869 46.4391 70.2246 46.5777 69.4686C46.7132 68.7283 47.1857 68.3409 47.9385 68.322C48.4425 68.3094 48.9465 68.3188 49.4505 68.3188C54.5157 68.3188 59.5809 68.3188 64.643 68.3188C65.7801 68.3188 66.177 68.6433 66.3723 69.771C66.4952 70.4829 66.5991 71.2011 66.6999 71.9193C66.8354 72.8958 66.2873 73.5132 65.2919 73.5132C62.3403 73.5163 59.3919 73.5132 56.4467 73.5132ZM56.4372 72.2154C58.154 72.2154 59.8707 72.2154 61.5906 72.2154C62.7593 72.2154 63.9311 72.2091 65.0997 72.2217C65.3769 72.2248 65.4525 72.1681 65.3927 71.872C65.2667 71.2641 65.1753 70.6498 65.1092 70.0324C65.0745 69.7111 64.9548 69.6166 64.6367 69.6198C62.7278 69.6355 60.8157 69.6261 58.9068 69.6261C55.3694 69.6261 51.8319 69.6292 48.2913 69.6198C47.97 69.6198 47.8188 69.6891 47.781 70.0324C47.7212 70.6057 47.6298 71.1759 47.5101 71.7397C47.4314 72.1146 47.5196 72.2248 47.9102 72.2217C50.7546 72.2091 53.5959 72.2154 56.4372 72.2154Z" fill="#9F8A60"/>
<path d="M46.5588 55.7474C46.4832 55.9144 46.3761 56.0624 46.2407 56.1884C46.1052 56.3144 45.9414 56.4152 45.7493 56.4971C45.5571 56.5759 45.3429 56.6294 45.1067 56.6515V57.3854H44.3381V56.6389C44.0168 56.5979 43.7081 56.5192 43.4088 56.3995C43.1096 56.2798 42.8387 56.1254 42.5898 55.9364L43.1663 55.0922C43.3679 55.2466 43.5632 55.3726 43.7553 55.4734C43.9443 55.5742 44.1522 55.6466 44.3727 55.6907V54.5126C44.105 54.4402 43.8719 54.3551 43.6734 54.2638C43.475 54.1724 43.308 54.0653 43.1789 53.9425C43.0466 53.8196 42.9489 53.6747 42.8828 53.5109C42.8166 53.3471 42.782 53.155 42.782 52.9376C42.782 52.7297 42.8198 52.5439 42.8922 52.3738C42.9647 52.2068 43.0718 52.0588 43.2072 51.9328C43.3427 51.8068 43.5065 51.706 43.6986 51.6304C43.8908 51.5548 44.1018 51.5044 44.3349 51.4792V51.0508H45.1035V51.4949C45.3713 51.5359 45.6138 51.5989 45.8406 51.6902C46.0643 51.7816 46.2785 51.8981 46.4801 52.043L45.9855 52.9093C45.8375 52.8116 45.6863 52.7234 45.5351 52.6478C45.3807 52.5722 45.2264 52.5124 45.0689 52.4746V53.5928C45.6327 53.7472 46.0391 53.9456 46.2942 54.1945C46.5494 54.4433 46.6754 54.7741 46.6754 55.1899C46.6722 55.3915 46.6344 55.5805 46.5588 55.7474ZM44.3696 52.4021C44.1932 52.4273 44.0609 52.4809 43.9821 52.5659C43.9002 52.651 43.8593 52.7518 43.8593 52.8683C43.8593 52.9817 43.8939 53.0794 43.9632 53.1644C44.0325 53.2495 44.168 53.3282 44.3696 53.4007V52.4021ZM45.4815 54.9253C45.4091 54.8402 45.2705 54.7615 45.0657 54.689V55.7254C45.4154 55.6718 45.5918 55.5112 45.5918 55.2434C45.5918 55.1143 45.554 55.0103 45.4815 54.9253Z" fill="#9F8A60"/>
<path d="M69.8909 55.7474C69.8153 55.9144 69.7082 56.0624 69.5727 56.1884C69.4373 56.3144 69.2735 56.4152 69.0813 56.4971C68.8892 56.5759 68.675 56.6294 68.4387 56.6515V57.3854H67.6701V56.6389C67.3488 56.5979 67.0401 56.5192 66.7409 56.3995C66.4416 56.2798 66.1707 56.1254 65.9219 55.9364L66.4983 55.0922C66.6999 55.2466 66.8952 55.3726 67.0874 55.4734C67.2764 55.5742 67.4843 55.6466 67.7048 55.6907V54.5126C67.437 54.4402 67.2039 54.3551 67.0055 54.2638C66.807 54.1724 66.6401 54.0653 66.5109 53.9425C66.3786 53.8196 66.281 53.6747 66.2148 53.5109C66.1487 53.3471 66.114 53.155 66.114 52.9376C66.114 52.7297 66.1518 52.5439 66.2243 52.3738C66.2967 52.2068 66.4038 52.0588 66.5393 51.9328C66.6747 51.8068 66.8385 51.706 67.0307 51.6304C67.2228 51.5548 67.4339 51.5044 67.667 51.4792V51.0508H68.4356V51.4949C68.7033 51.5359 68.9459 51.5989 69.1727 51.6902C69.3963 51.7816 69.6105 51.8981 69.8121 52.043L69.3176 52.9093C69.1695 52.8116 69.0183 52.7234 68.8671 52.6478C68.7128 52.5722 68.5584 52.5124 68.4009 52.4746V53.5928C68.9648 53.7472 69.3711 53.9456 69.6263 54.1945C69.8814 54.4433 70.0074 54.7741 70.0074 55.1899C70.0074 55.3915 69.9696 55.5805 69.8909 55.7474ZM67.7048 52.4021C67.5284 52.4273 67.3961 52.4809 67.3173 52.5659C67.2354 52.651 67.1945 52.7518 67.1945 52.8683C67.1945 52.9817 67.2291 53.0794 67.2984 53.1644C67.3677 53.2495 67.5032 53.3282 67.7048 53.4007V52.4021ZM68.8167 54.9253C68.7443 54.8402 68.6057 54.7615 68.4009 54.689V55.7254C68.7506 55.6718 68.927 55.5112 68.927 55.2434C68.927 55.1143 68.8892 55.0103 68.8167 54.9253Z" fill="#9F8A60"/>
</svg>
