<svg width="17" height="15" viewBox="0 0 17 15" fill="none" xmlns="http://www.w3.org/2000/svg">
<g clip-path="url(#clip0_63_1432)">
<path d="M0 10.807C0 5.53267 3.18393 0.817702 7.46605 0.0931419C11.072 -0.516874 14.5797 1.89655 16.2147 6.08675C16.3581 6.45702 16.3233 6.59288 16.0303 6.72873C15.5693 6.9445 15.1206 7.20289 14.676 7.46661C14.4773 7.58382 14.3687 7.5705 14.2211 7.32276C12.4673 4.35793 10.1378 3.01802 7.27755 3.31637C4.08748 3.64935 1.27439 6.92319 0.600316 11.0068C0.46714 11.8113 0.399528 12.6238 0.401577 13.4469C0.401577 13.5614 0.483531 13.7666 0.319622 13.7745C0.192593 13.7799 0.206935 13.5694 0.186446 13.4469C0.0614658 12.6877 0.00409772 11.9179 0 10.8017L0 10.807Z" fill="#B49758"/>
<path d="M1.56743 13.7986C1.36869 13.7986 1.16585 13.7693 0.971209 13.8039C0.633147 13.8652 0.590121 13.6547 0.608561 13.2818C0.835984 8.67337 3.17373 5.05057 6.66704 4.20081C9.69116 3.46559 12.1785 4.81615 14.0798 7.97279C14.2232 8.21253 14.1843 8.27113 13.9938 8.41232C13.6496 8.66804 13.4078 8.6494 13.2132 8.16458C13.0861 7.84759 12.9263 7.8316 12.7522 8.12995C12.6743 8.26048 12.5698 8.36437 12.4776 8.48158C12.1375 8.91312 12.0248 8.88648 11.7523 8.36437C11.6683 8.20454 11.7462 8.1486 11.8097 8.06868C11.9674 7.86623 12.117 7.6478 12.2891 7.46932C12.4981 7.25089 12.4489 7.10971 12.2604 6.92324C11.7564 6.42244 11.2217 5.99623 10.6398 5.66591C10.4472 5.5567 10.3468 5.57268 10.2894 5.86037C10.228 6.16671 10.144 6.46772 10.06 6.76607C10.019 6.90992 10.0087 7.09639 9.80385 6.98983C9.6215 6.8966 9.69321 6.76607 9.72804 6.63288C9.81204 6.30257 9.90014 5.97225 9.99029 5.6446C10.0395 5.46879 10.0169 5.35957 9.86122 5.31162C9.45144 5.18642 9.04167 5.07721 8.62165 5.0266C8.44136 5.00528 8.3635 5.07721 8.37784 5.32228C8.38808 5.53272 8.37784 5.74849 8.37374 5.9616C8.36964 6.48903 8.17295 6.66485 7.78572 6.50502C7.67508 6.45973 7.67713 6.3665 7.67713 6.26261C7.67713 6.00422 7.66074 5.74316 7.68533 5.48744C7.7222 5.10118 7.61976 4.97332 7.32063 5.03725C6.77973 5.15446 6.24498 5.2983 5.72661 5.54338C5.54017 5.63128 5.48485 5.71919 5.58319 5.96426C5.70408 6.25728 5.79423 6.57161 5.90487 6.87263C5.96633 7.04045 5.95404 7.14434 5.80857 7.22958C5.66105 7.31748 5.63032 7.2056 5.58524 7.07241C5.4787 6.75275 5.35782 6.44109 5.25947 6.1161C5.20006 5.91898 5.13449 5.85504 4.98083 5.96693C4.54237 6.28925 4.12236 6.64354 3.73512 7.06442C3.5999 7.21093 3.60195 7.31216 3.72078 7.46133C3.88059 7.66112 4.01582 7.90353 4.18997 8.07401C4.44608 8.32707 4.29651 8.47625 4.14489 8.66005C3.99942 8.83586 3.87854 9.08094 3.69005 8.71866C3.62653 8.59346 3.53024 8.50022 3.44623 8.39101C3.18534 8.04648 2.94085 8.07401 2.71274 8.47358C2.47712 8.88914 2.27428 9.334 2.08579 9.78951C2.00383 9.9893 1.99974 10.1038 2.19028 10.1918C2.43205 10.301 2.66152 10.4555 2.89919 10.578C3.00983 10.6366 3.08973 10.6872 3.03031 10.8737C2.9709 11.0575 2.89304 11.0788 2.75986 10.9936C2.56112 10.8684 2.3419 10.7911 2.15135 10.6499C1.92188 10.4794 1.81124 10.5301 1.73543 10.8684C1.58177 11.5556 1.45474 12.2456 1.40762 12.9595C1.39123 13.1912 1.44245 13.2605 1.6084 13.2578C1.85427 13.2552 2.10013 13.2765 2.34599 13.2711C2.5099 13.2685 2.57137 13.3457 2.56932 13.5642C2.56932 13.7986 2.46073 13.7906 2.33985 13.7879C2.08169 13.7879 1.82558 13.7879 1.56743 13.7879V13.7986Z" fill="#B49758"/>
<path d="M16.8931 7.55457C16.7989 7.82628 16.6124 7.96213 16.4465 8.11131C14.8975 9.50183 13.2503 10.6872 11.6132 11.8913C10.2507 12.8929 8.87594 13.8625 7.5032 14.8375C7.13236 15.1012 6.77381 15.0373 6.50131 14.6989C6.23496 14.3686 6.15095 13.8732 6.28823 13.4443C6.36403 13.2099 6.48697 13.0261 6.66317 12.9222C9.86554 11.0495 13.0454 9.11024 16.3686 7.61051C16.5223 7.54125 16.6903 7.42138 16.8911 7.55191L16.8931 7.55457Z" fill="#B49758"/>
<path d="M13.1822 11.2466C13.1515 11.0601 13.2376 11.0388 13.2908 10.9989C13.758 10.6579 14.2313 10.3303 14.6943 9.97864C14.8644 9.84811 14.9258 9.89872 14.9934 10.1225C15.3192 11.2067 15.4811 12.3308 15.5138 13.4896C15.52 13.7293 15.4544 13.8066 15.2721 13.8012C14.7824 13.7879 14.2927 13.7879 13.801 13.8012C13.6146 13.8066 13.5633 13.7186 13.5633 13.4869C13.5633 13.2365 13.6125 13.1273 13.8194 13.1486C14.0407 13.1699 14.264 13.1433 14.4833 13.1619C14.6738 13.1779 14.725 13.082 14.7086 12.8476C14.6615 12.179 14.5468 11.5343 14.3911 10.8977C14.3357 10.6686 14.2517 10.6792 14.1063 10.7618C13.8051 10.9349 13.4937 11.0841 13.1822 11.244V11.2466Z" fill="#B49758"/>
</g>
<defs>
<clipPath id="clip0_63_1432">
<rect width="16.8929" height="15" fill="white"/>
</clipPath>
</defs>
</svg>
