<svg width="113" height="112" viewBox="0 0 113 112" fill="none" xmlns="http://www.w3.org/2000/svg">
<rect x="2.6665" y="2.5" width="107" height="107" rx="53.5" stroke="black" stroke-width="5"/>
<path d="M73.7013 58.7088C73.4262 58.6373 73.1456 58.6016 72.8622 58.6016C72.3288 58.6016 71.7731 58.7281 71.1618 58.9838C69.6421 59.6246 68.1223 60.2653 66.597 60.8923C65.1801 61.4781 63.7603 62.0556 62.3406 62.6358L59.7762 63.6836C59.7956 63.5296 59.8095 63.3701 59.8095 63.2051C59.8067 62.7211 59.6234 62.4873 59.1399 62.3416L57.1784 61.7586C55.5503 61.2746 53.9222 60.7933 52.2968 60.3011C51.4578 60.0481 50.6687 59.9243 49.8852 59.9243H49.7602C48.8128 59.9408 47.8431 60.0893 46.8763 60.3643C46.0761 60.5926 45.2287 60.8538 44.4702 61.3048C42.6171 62.4048 40.7695 63.5131 38.9219 64.6213L37.5216 65.4601C37.3938 65.5371 37.2993 65.6196 37.2326 65.7103C37.0215 66.0018 37.0548 66.4006 37.3132 66.6591C37.4604 66.8076 37.6438 66.8873 37.8383 66.8873C37.9883 66.8873 38.1439 66.8406 38.2967 66.7498L40.2888 65.5618C41.5057 64.8358 42.7226 64.1098 43.9423 63.3866C44.0813 63.3041 44.2174 63.2216 44.3535 63.1391C44.7731 62.8833 45.2065 62.6193 45.6482 62.4103C46.6179 61.9511 47.6848 61.6458 48.8183 61.5001C49.2129 61.4506 49.5713 61.4258 49.9158 61.4258C50.3964 61.4258 50.8354 61.4726 51.2577 61.5688C51.6828 61.6651 52.1162 61.8026 52.533 61.9346C52.7219 61.9951 52.9136 62.0556 53.1053 62.1133L57.2645 63.3591L58.2536 63.6588L58.2425 63.7166C58.1064 64.4206 57.6341 64.8661 56.9089 64.9678C55.9976 65.0971 55.0002 65.1576 53.7721 65.1576C53.4943 65.1576 53.2165 65.1548 52.9386 65.1493C52.583 65.1438 52.2302 65.1301 51.8745 65.1163C51.655 65.1081 51.4355 65.0998 51.1855 65.0916C50.8299 65.0916 50.5548 65.2786 50.4492 65.5948C50.3714 65.8286 50.3992 66.0623 50.5298 66.2493C50.6715 66.4528 50.9216 66.5738 51.2133 66.5876L51.2883 66.5903C51.8634 66.6151 52.4358 66.6371 53.0109 66.6453C53.2387 66.6481 53.4665 66.6508 53.6944 66.6508C54.864 66.6508 55.8392 66.5986 56.7644 66.4886C57.3201 66.4226 57.9591 66.3153 58.5009 65.9056C58.7537 65.7158 59.051 65.5893 59.3372 65.4711L61.671 64.5141C63.952 63.5791 66.233 62.6441 68.5113 61.7063C68.9642 61.5193 69.417 61.3296 69.8699 61.1371C70.3089 60.9501 70.7479 60.7658 71.1869 60.5843C71.2896 60.5431 71.3897 60.4963 71.4925 60.4523C71.8342 60.3011 72.1593 60.1581 72.5093 60.1141C72.6149 60.1003 72.7205 60.0948 72.8233 60.0948C73.3123 60.0948 73.7263 60.2543 74.0902 60.5816L63.7492 68.0808C62.6851 68.8536 61.621 69.6291 60.5513 70.3963C59.7234 70.9931 58.8065 71.2956 57.8258 71.2956C57.6229 71.2956 57.4146 71.2818 57.2062 71.2571C56.8089 71.2076 56.4032 71.1416 56.0087 71.0756L55.5142 70.9958L51.8162 70.4128L47.4403 69.7281C46.7207 69.6153 46.0011 69.5053 45.2843 69.3843C45.2204 69.3733 45.1565 69.3678 45.0981 69.3678C44.8731 69.3678 44.6786 69.4421 44.498 69.5933C44.0507 69.9728 43.5978 70.3496 43.1449 70.7236C42.8115 70.9986 42.4754 71.2708 42.1392 71.5458L41.5724 72.0078C41.339 72.2003 41.2501 72.4808 41.3251 72.7778C41.3946 73.0556 41.6057 73.2536 41.9058 73.3196C41.9586 73.3306 42.0114 73.3361 42.0614 73.3361C42.2392 73.3361 42.4087 73.2701 42.5671 73.1381C43.4728 72.3901 44.3758 71.6421 45.2732 70.8968C45.8372 70.9821 46.404 71.0728 46.968 71.1608L47.8181 71.2956L49.3935 71.5403C50.0575 71.6448 50.7243 71.7466 51.3883 71.8511C51.8162 71.9198 52.2468 71.9886 52.6747 72.0573L53.6888 72.2223L54.8001 72.3983C55.428 72.4973 56.0587 72.5963 56.6866 72.6981C57.0617 72.7586 57.434 72.7916 57.798 72.7916C58.6231 72.7916 59.4344 72.6293 60.2096 72.3103C60.8625 72.0408 61.4154 71.6338 61.9044 71.2736C62.2822 70.9958 62.6656 70.7236 63.0491 70.4513C63.3325 70.2506 63.6158 70.0498 63.8965 69.8436C65.783 68.4768 75.585 61.3708 75.585 61.3708C75.9962 61.0711 76.074 60.6751 75.7989 60.2516C75.2794 59.4596 74.5737 58.9371 73.7013 58.7088Z" fill="#9F8A60"/>
<path d="M50.2184 53.0882C50.2129 53.9654 50.3435 54.7409 50.613 55.4614C51.152 56.8997 52.1911 57.9227 53.7831 58.5882C54.8944 59.0529 56.1252 59.3004 57.7783 59.3912C58.1617 59.4132 58.5507 59.4242 58.9313 59.4242C59.5759 59.4242 60.2261 59.3939 60.8651 59.3334C62.032 59.2234 62.9822 59.0172 63.8574 58.6844C64.8464 58.3077 65.6216 57.8044 66.2245 57.1472C67.1386 56.1544 67.6081 54.9087 67.6554 53.3384C67.6804 52.5134 67.5942 51.6637 67.3914 50.7424C66.7552 47.8632 65.5938 45.4652 63.8379 43.4137C63.035 42.4759 62.157 41.7884 61.1568 41.3154C61.9097 40.5674 62.2237 39.6627 62.0903 38.6232C62.007 37.9714 61.5485 37.4929 60.954 37.4324C60.8151 37.4187 60.6734 37.4132 60.5317 37.4132C60.3483 37.4132 60.1538 37.4242 59.9566 37.4462L59.8815 37.4544C59.5092 37.4957 59.1564 37.5369 58.8008 37.5369C58.6146 37.5369 58.4451 37.5259 58.2812 37.5039C57.8978 37.4517 57.5255 37.4022 57.1226 37.3994C56.2808 37.3994 55.7279 37.8889 55.6446 38.7112C55.5834 39.3134 55.6834 39.8909 55.9446 40.4272C56.1141 40.7764 56.3419 41.0844 56.6309 41.3567C56.592 41.3759 56.5531 41.3952 56.5142 41.4144C55.5167 41.9287 54.6138 42.6877 53.7581 43.7382C52.8079 44.9014 52.016 46.2599 51.402 47.7752C50.6018 49.7442 50.2268 51.4327 50.2184 53.0882ZM60.5733 38.9312C60.5761 38.9614 60.5761 39.0054 60.5733 39.0687C60.5372 39.8662 59.9871 40.5152 59.2008 40.6802C59.0925 40.7022 58.9814 40.7159 58.8702 40.7159C57.9561 40.7159 57.1838 39.9542 57.1838 39.0494C57.1838 38.9972 57.1838 38.9587 57.1865 38.9312C57.2227 38.9339 57.2616 38.9367 57.3088 38.9422C57.4394 38.9559 57.5699 38.9724 57.7005 38.9862C58.0784 39.0302 58.4674 39.0769 58.8591 39.0769C59.2592 39.0769 59.6593 39.0302 60.0455 38.9862C60.1733 38.9724 60.3011 38.9559 60.4289 38.9422C60.4817 38.9367 60.5317 38.9339 60.5706 38.9339C60.5706 38.9312 60.5733 38.9312 60.5733 38.9312ZM57.6144 42.6189C58.0506 42.4374 58.4951 42.3467 58.9341 42.3467C59.4453 42.3467 59.9704 42.4732 60.49 42.7179C61.3846 43.1414 62.1765 43.8042 62.9766 44.8079C64.1157 46.2324 64.9631 47.8852 65.566 49.8597C65.8856 50.9074 66.0606 51.8699 66.1023 52.7994C66.1384 53.6547 66.0272 54.3862 65.7661 55.0297C65.4049 55.9124 64.7548 56.5697 63.7796 57.0372C63.0489 57.3864 62.2237 57.6147 61.2513 57.7302C60.7901 57.7852 60.3205 57.8209 59.9788 57.8484L59.6704 57.8732C59.4981 57.8759 59.3286 57.8759 59.1647 57.8759C57.7755 57.8759 56.7837 57.7934 55.8529 57.6009C54.7583 57.3754 53.9386 57.0372 53.2774 56.5367C52.505 55.9537 52.0383 55.1589 51.8493 54.1139C51.7354 53.4842 51.7271 52.8077 51.8271 52.0514C51.9938 50.7672 52.3633 49.4527 52.9273 48.1437C53.5413 46.7137 54.2554 45.5367 55.1111 44.5439C55.9196 43.6007 56.717 42.9874 57.6144 42.6189Z" fill="#9F8A60"/>
<path d="M63.4656 42.1982C63.5601 42.2367 63.6573 42.2587 63.7518 42.2587C63.9602 42.2587 64.1546 42.1652 64.3297 41.9782C65.6383 40.584 67.2358 39.8882 69.1862 39.8552L69.3863 39.8663C69.5419 39.8745 69.7113 39.8855 69.8808 39.902C70.9866 40.023 71.9729 40.3832 72.8148 40.969C74.454 42.1102 75.4042 43.6667 75.6348 45.5945C75.7987 46.9585 75.5514 48.2262 74.893 49.3592C73.5927 51.606 71.6117 52.7445 69.0056 52.75C68.5611 52.75 68.1971 53.1047 68.1944 53.542C68.1944 53.7455 68.2722 53.9352 68.4166 54.0782C68.5611 54.224 68.7584 54.3037 68.9723 54.3037L69.214 54.2982C69.5502 54.29 69.8975 54.2817 70.2448 54.235C71.6479 54.048 72.887 53.553 73.9317 52.7582C76.41 50.8745 77.5018 48.3747 77.174 45.325C76.9823 43.5512 76.2266 41.9975 74.9235 40.7132C73.3065 39.121 71.4006 38.3125 69.2557 38.3125C68.7278 38.3125 68.1777 38.362 67.622 38.461C66.0106 38.747 64.5658 39.5968 63.2044 41.0597C63.11 41.1615 63.0433 41.3072 63.0239 41.4612C62.9794 41.7747 63.1572 42.0717 63.4656 42.1982Z" fill="#9F8A60"/>
<path d="M67.4448 46.9334C67.5781 47.5686 68.0866 48.0801 68.7145 48.2039C68.8201 48.2259 68.9284 48.2341 69.034 48.2341C69.5841 48.2341 70.1009 47.9536 70.401 47.4971C70.8816 47.4999 72.7375 47.4999 73.1849 47.4999C73.446 47.4999 73.6544 47.4091 73.8044 47.2304C74.0017 46.9939 74.0462 46.6969 73.9183 46.4191C73.7878 46.1276 73.521 45.9599 73.1849 45.9599H72.3458C72.3458 45.9599 71.0122 45.9599 70.5149 45.9626C70.3565 45.6079 70.0898 45.3384 69.7314 45.1734C69.7341 44.9286 69.7342 44.6839 69.7342 44.4419V43.5729C69.7342 43.1136 69.7369 42.6544 69.7314 42.1951C69.7286 41.7496 69.3869 41.4004 68.9562 41.4004C68.834 41.4004 68.7145 41.4279 68.6034 41.4856C68.3116 41.6314 68.1616 41.9009 68.1616 42.2804V44.7334C68.1588 44.9094 68.1588 45.0881 68.1644 45.2751C67.6004 45.6271 67.3114 46.2926 67.4448 46.9334Z" fill="#9F8A60"/>
<path d="M40.5192 49.8982H42.5669C43.931 49.8982 45.2924 49.8982 46.6566 49.8955C46.7677 49.8955 46.9344 49.8817 47.0983 49.8102C47.4623 49.6562 47.654 49.2657 47.5623 48.8587C47.4762 48.4765 47.1317 48.2207 46.7038 48.2207H43.2753H40.4525C40.0024 48.2207 39.6551 48.5095 39.5885 48.9357C39.5523 49.1777 39.6162 49.406 39.7691 49.5847C39.9413 49.7882 40.208 49.8982 40.5192 49.8982Z" fill="#9F8A60"/>
<path d="M45.7619 43.598H48.4596H48.7736H51.2241C51.5742 43.598 51.8437 43.4275 51.9798 43.1167C52.1132 42.8142 52.0604 42.5007 51.8353 42.234C51.6631 42.0305 51.4214 41.9287 51.1102 41.9287H45.7619C45.4951 41.9287 45.259 42.0195 45.095 42.1817C44.9422 42.333 44.8589 42.5447 44.8589 42.7785C44.8644 43.2597 45.234 43.598 45.7619 43.598Z" fill="#9F8A60"/>
<path d="M42.5395 56.1628C42.3839 56.3195 42.3005 56.5258 42.3033 56.7485C42.3088 57.2188 42.6923 57.5708 43.1924 57.5708H47.171H48.2073C48.4573 57.5708 48.6852 57.48 48.8491 57.3178C49.0019 57.1638 49.0852 56.9548 49.0852 56.7293C49.0797 56.259 48.7074 55.9043 48.2156 55.9043H43.1812C42.9312 55.907 42.7034 55.9978 42.5395 56.1628Z" fill="#9F8A60"/>
<path d="M44.7921 46.2928C45.081 46.2956 45.37 46.2956 45.6617 46.2956H47.9122H48.6957C49.2097 46.2928 49.5542 45.9628 49.557 45.4733C49.557 45.2368 49.4736 45.0251 49.3208 44.8738C49.1652 44.7171 48.9402 44.6318 48.6901 44.6318H44.856C44.7726 44.6318 44.6893 44.6346 44.6004 44.6566C44.1892 44.7583 43.9141 45.1461 43.9669 45.5558C44.0169 45.9876 44.3587 46.2901 44.7921 46.2928Z" fill="#9F8A60"/>
<path d="M40.9831 55.9072H38.6965C38.2159 55.9072 37.8519 56.262 37.8491 56.7322C37.8464 57.2162 38.2048 57.5682 38.7021 57.571L40.5358 57.5737C40.6886 57.5737 40.8414 57.5737 40.9942 57.571C41.4804 57.5655 41.8444 57.2025 41.8444 56.7267C41.8388 56.2702 41.4638 55.91 40.9831 55.9072Z" fill="#9F8A60"/>
<path d="M44.1893 54.1355H45.0089C45.3951 54.1355 45.7785 54.1355 46.1647 54.1328C46.2897 54.1328 46.4148 54.1135 46.5203 54.0778C46.8954 53.9513 47.1288 53.5608 47.0649 53.1648C47.001 52.7605 46.6565 52.469 46.2286 52.4608C46.0869 52.458 45.9424 52.458 45.8007 52.458L45.1673 52.4608L44.4366 52.458C44.3338 52.458 44.231 52.458 44.1254 52.4608C43.8253 52.4663 43.5614 52.5983 43.403 52.8293C43.2502 53.0493 43.2141 53.327 43.3113 53.5883C43.4419 53.9348 43.7614 54.1328 44.1893 54.1355Z" fill="#9F8A60"/>
<path d="M40.8499 46.2954C40.9582 46.2982 41.0666 46.2982 41.1749 46.2982H42.2001C42.314 46.2982 42.428 46.2982 42.5391 46.2954C43.0281 46.2817 43.3643 45.9242 43.3559 45.4264C43.3476 44.9837 42.9781 44.6344 42.5141 44.6317C42.2474 44.6289 41.9806 44.6289 41.7139 44.6289C41.425 44.6289 41.136 44.6289 40.8471 44.6317C40.372 44.6344 39.9997 45.0029 40.0025 45.4677C40.008 45.9324 40.372 46.2899 40.8499 46.2954Z" fill="#9F8A60"/>
<path d="M38.7243 53.2783C38.7159 53.7348 39.0549 54.1061 39.4994 54.1198C39.8078 54.1308 40.119 54.1363 40.4274 54.1363C40.6552 54.1363 40.8831 54.1336 41.1109 54.1253C41.3415 54.1171 41.5499 54.0291 41.6971 53.8723C41.8471 53.7101 41.9249 53.4928 41.9138 53.2536C41.8944 52.7888 41.5387 52.4616 41.047 52.4588L39.8495 52.4561C39.7467 52.4561 39.6411 52.4561 39.5383 52.4616C39.091 52.4781 38.7326 52.8356 38.7243 53.2783Z" fill="#9F8A60"/>
<path d="M37.1212 49.8788C37.2045 49.887 37.2879 49.8898 37.3712 49.8898C37.4324 49.8898 37.6713 49.8843 37.7269 49.8843H37.8519C37.8686 49.8843 38.0297 49.8898 38.0908 49.8898C38.177 49.8898 38.2631 49.887 38.3492 49.8788C38.7771 49.8348 39.0883 49.469 39.0744 49.0263C39.0605 48.5973 38.7215 48.2453 38.302 48.2288C38.1158 48.2205 37.9269 48.2178 37.7408 48.2178C37.5463 48.2178 37.3546 48.2205 37.1601 48.2288C36.7239 48.2453 36.3877 48.5918 36.3738 49.0318C36.3627 49.4773 36.6767 49.8348 37.1212 49.8788Z" fill="#9F8A60"/>
<path d="M37.5632 56.7403C37.5632 56.281 37.2048 55.9125 36.7436 55.907C36.5852 55.9043 36.4269 55.9043 36.2657 55.9043C36.0935 55.9043 35.9212 55.907 35.7462 55.9098C35.2877 55.918 34.921 56.2975 34.9293 56.754C34.9349 57.2023 35.2933 57.5598 35.7434 57.5735C35.8101 57.5763 35.874 57.5763 35.9407 57.5763H36.5491C36.613 57.5763 36.6769 57.5763 36.7436 57.5735C37.2104 57.5598 37.5604 57.205 37.5632 56.7403Z" fill="#9F8A60"/>
<path d="M42.1526 43.5947C42.2026 43.5947 42.9083 43.5974 42.9083 43.5974C42.9694 43.5974 43.0278 43.5974 43.0889 43.5947C43.5723 43.5837 43.9307 43.2427 43.9391 42.7779C43.9474 42.3104 43.5751 41.9364 43.0917 41.9254C42.9361 41.9227 42.7777 41.9199 42.6194 41.9199C42.4582 41.9199 42.2971 41.9227 42.1359 41.9254C41.658 41.9392 41.3024 42.3022 41.3052 42.7724C41.3107 43.2482 41.658 43.5837 42.1526 43.5947Z" fill="#9F8A60"/>
<path d="M57.7309 52.2193C57.4808 52.0873 57.2252 51.9223 56.9613 51.7243L56.2056 52.8188C56.5279 53.0608 56.8863 53.2615 57.278 53.4183C57.6698 53.575 58.0754 53.6795 58.4949 53.729V54.697H59.5035V53.7483C59.8146 53.7153 60.0953 53.6493 60.3481 53.5475C60.6009 53.4458 60.8149 53.311 60.9927 53.1488C61.1705 52.9865 61.3094 52.7968 61.4094 52.5768C61.5094 52.3595 61.5594 52.1175 61.5594 51.848C61.5594 51.3118 61.3927 50.88 61.0593 50.5583C60.7259 50.2365 60.1925 49.9753 59.4562 49.7773V48.328C59.6618 48.3803 59.8674 48.4545 60.0675 48.5535C60.2675 48.6525 60.4648 48.7653 60.6593 48.8945L61.3094 47.7725C61.0455 47.5883 60.7648 47.4343 60.4703 47.316C60.1758 47.1978 59.8535 47.1125 59.5062 47.063V46.4883H58.4977V47.0438C58.1949 47.0768 57.917 47.14 57.6642 47.2418C57.4114 47.3408 57.1974 47.4728 57.0196 47.635C56.8418 47.7973 56.7057 47.9898 56.6084 48.207C56.5112 48.4243 56.464 48.6663 56.464 48.9358C56.464 49.2163 56.5084 49.4638 56.5945 49.6783C56.6807 49.8928 56.8112 50.0798 56.9835 50.2393C57.1558 50.3988 57.3725 50.539 57.6336 50.6573C57.8948 50.7755 58.2004 50.8828 58.5505 50.979V52.5053C58.2504 52.4448 57.9782 52.3485 57.7309 52.2193ZM59.4507 51.2073C59.7146 51.3035 59.898 51.4053 59.9925 51.5153C60.0897 51.6253 60.1369 51.7628 60.1369 51.9278C60.1369 52.2743 59.9063 52.4805 59.4479 52.552V51.2073H59.4507ZM58.0059 49.23C57.9143 49.12 57.8698 48.9935 57.8698 48.845C57.8698 48.691 57.9226 48.5618 58.0309 48.4518C58.1365 48.3445 58.306 48.273 58.5394 48.24V49.5353C58.2754 49.439 58.0976 49.3373 58.0059 49.23Z" fill="#9F8A60"/>
</svg>
