<svg width="113" height="112" viewBox="0 0 113 112" fill="none" xmlns="http://www.w3.org/2000/svg">
<path d="M3.3335 56C3.3335 26.4528 27.2863 2.5 56.8335 2.5C86.3807 2.5 110.333 26.4528 110.333 56C110.333 85.5472 86.3807 109.5 56.8335 109.5C27.2863 109.5 3.3335 85.5472 3.3335 56Z" stroke="black" stroke-width="5"/>
<g clip-path="url(#clip0_63_1583)">
<path d="M57.7656 67.4259C57.4736 67.2702 57.1681 67.0745 56.8536 66.8433L55.9595 68.1374C56.3414 68.4265 56.7637 68.6622 57.2265 68.8445C57.6893 69.0313 58.1655 69.1513 58.6642 69.2136V70.3565H59.8549V69.2358C60.2233 69.2003 60.5558 69.1202 60.8523 68.9957C61.1489 68.8756 61.405 68.72 61.6161 68.5243C61.8273 68.3331 61.989 68.1063 62.1104 67.8483C62.2272 67.5904 62.2901 67.3058 62.2901 66.9856C62.2901 66.3497 62.0924 65.8427 61.7015 65.4602C61.3061 65.0778 60.6771 64.7709 59.8055 64.5352V62.8231C60.0481 62.8853 60.2907 62.9743 60.5288 63.0899C60.767 63.2055 61.0006 63.3434 61.2252 63.4946L61.9935 62.1694C61.679 61.9514 61.351 61.7691 61.0051 61.6313C60.6591 61.4934 60.2772 61.3911 59.8639 61.3288V60.6484H58.6732V61.3066C58.3138 61.3466 57.9858 61.4222 57.6893 61.5379C57.3927 61.6535 57.1366 61.8091 56.9255 62.0048C56.7143 62.196 56.5525 62.4228 56.4402 62.6808C56.3279 62.9387 56.2695 63.2233 56.2695 63.5435C56.2695 63.877 56.3189 64.1706 56.4222 64.424C56.5256 64.6775 56.6783 64.8999 56.8805 65.0867C57.0827 65.2734 57.3388 65.438 57.6488 65.5803C57.9588 65.7182 58.3183 65.8471 58.7316 65.9583V67.7594C58.3767 67.6927 58.0577 67.5815 57.7656 67.4259ZM59.7965 66.2296C60.111 66.3452 60.3222 66.4653 60.439 66.5942C60.5513 66.7232 60.6097 66.8833 60.6097 67.0834C60.6097 67.4926 60.3401 67.7372 59.7965 67.8217V66.2296ZM58.0891 63.8948C57.9813 63.7659 57.9274 63.6147 57.9274 63.4412C57.9274 63.2589 57.9903 63.1032 58.1161 62.9743C58.2419 62.8453 58.4441 62.7608 58.7182 62.7252V64.2551C58.4081 64.1439 58.197 64.0238 58.0891 63.8948Z" fill="#9F8A60"/>
<path d="M31.4878 65.4472C31.4878 61.8183 31.4788 58.1939 31.4923 54.5651C31.5058 51.3098 33.6354 49.1262 36.9468 49.2374C39.2382 49.3175 41.251 48.7794 43.2998 47.7965C53.7055 42.8069 64.1562 37.9061 74.5979 32.9832C78.0799 31.3422 80.7308 32.2672 82.3932 35.7048C85.4349 41.9975 88.4677 48.2902 91.4959 54.5918C93.2033 58.145 92.3271 60.7777 88.7148 62.3609C87.2681 62.9968 86.8233 63.7751 86.7514 65.3405C86.639 67.8175 87.1467 69.414 89.5011 70.9483C94.7039 74.3414 96.4023 81.0522 94.0839 86.7045C91.7161 92.4768 85.7045 95.9189 79.4727 95.0651C73.4207 94.2379 68.5908 89.3549 67.8899 83.249C67.7641 82.1462 67.4675 81.7859 66.2724 81.7948C56.8192 81.8571 47.3615 81.8215 37.9083 81.8437C36.0976 81.8482 34.3813 81.697 33.0154 80.3406C31.9685 79.3044 31.4788 78.0637 31.4878 76.5961C31.5013 72.8783 31.4878 69.1605 31.4878 65.4472ZM84.6846 68.4579C84.7026 68.0577 84.734 67.6619 84.7385 67.2661C84.743 63.1925 84.7475 59.1145 84.7385 55.0409C84.7295 52.2526 83.7231 51.2698 80.8746 51.2653C66.3083 51.2609 51.7376 51.2609 37.1714 51.2653C34.6419 51.2653 33.5231 52.3682 33.5186 54.8541C33.5096 61.8406 33.5051 68.827 33.5096 75.809C33.5096 78.8019 34.5475 79.8025 37.6162 79.8025C46.9796 79.8025 56.3429 79.8025 65.7108 79.8025C67.8584 79.8025 67.8584 79.8114 68.3392 77.699C68.3571 77.6279 68.3032 77.5389 68.2583 77.3699C67.7416 77.3699 67.2024 77.3699 66.6633 77.3699C58.6568 77.3699 50.6503 77.3566 42.6439 77.3877C41.4802 77.3922 40.8961 77.0231 40.7613 75.8268C40.5546 73.9812 39.3864 72.7583 37.5264 72.5848C36.1785 72.4603 35.8954 71.771 35.8999 70.6281C35.9269 67.226 35.9403 63.8195 35.8864 60.4175C35.864 59.1545 36.3088 58.5497 37.6162 58.3763C39.4134 58.1361 40.5681 57.0288 40.7298 55.33C40.8601 53.9692 41.5386 53.6089 42.7697 53.6134C53.7595 53.6356 64.7538 53.6401 75.7436 53.6356C76.7545 53.6356 77.3161 53.938 77.4554 55.0498C77.7205 57.1355 78.7314 58.1094 80.8656 58.4163C81.9304 58.5719 82.3438 59.0745 82.3213 60.1106C82.2809 62.0362 82.2898 63.9619 82.2943 65.8875C82.3033 68.1555 82.3078 68.1555 84.6846 68.4579ZM93.0056 81.8349C93.1404 75.6 87.9914 70.3212 81.6249 70.1611C75.3257 70.0055 69.9342 75.1108 69.7769 81.3812C69.6152 87.7673 74.818 93.0905 81.3104 93.1884C87.6185 93.2773 92.8708 88.1853 93.0056 81.8349ZM50.9019 65.6384C51.0502 70.2679 54.7479 73.7811 59.3173 73.6344C63.7159 73.492 67.5169 69.4629 67.3507 65.1092C67.1845 60.751 63.3789 57.26 58.9174 57.3801C54.3525 57.5046 50.7582 61.2046 50.9019 65.6384ZM86.8143 60.9022C90.1705 59.9728 90.9972 58.2517 89.5774 55.3077C86.5672 49.0551 83.5524 42.8069 80.5376 36.5542C79.3784 34.1572 77.9092 33.6413 75.492 34.7798C65.877 39.3203 56.2621 43.8608 46.6516 48.4147C46.2921 48.5837 45.7979 48.6371 45.6047 49.1307C50.0573 49.442 50.1247 49.4242 53.9751 47.6009C59.8385 44.8259 65.7153 42.0731 71.5696 39.2759C72.6884 38.7422 73.4297 38.7644 74.1441 39.934C75.0876 41.4683 76.6467 41.9664 78.3854 41.3527C79.5491 40.9391 80.1647 41.2948 80.6409 42.3132C81.6833 44.5412 82.7706 46.7515 83.8354 48.9706C84.0691 49.4553 84.3027 49.9089 84.7565 50.2603C86.2122 51.3854 86.8278 52.9107 86.8143 54.7207C86.8053 56.7753 86.8143 58.8254 86.8143 60.9022ZM76.3142 65.5762C76.3681 64.4866 75.5324 63.5972 74.4137 63.5572C73.2994 63.5171 72.4008 64.331 72.3514 65.4294C72.302 66.5145 73.1556 67.4262 74.2474 67.4617C75.3392 67.4973 76.2603 66.6524 76.3142 65.5762ZM45.9013 65.4472C45.8833 64.371 44.9757 63.526 43.8659 63.5527C42.7562 63.5794 41.9205 64.451 41.9429 65.5628C41.9609 66.6613 42.8595 67.5018 43.9648 67.4573C45.0566 67.4173 45.9192 66.5278 45.9013 65.4472Z" fill="#9F8A60"/>
<path d="M82.7624 75.5909C79.6443 74.9328 76.8587 76.2847 75.5512 79.0553C75.4748 79.2154 75.4299 79.3932 75.3535 79.5533C75.075 80.1626 74.7155 80.7096 73.9248 80.3761C73.1654 80.0559 73.2373 79.4422 73.462 78.784C74.4459 75.8622 77.5416 73.5364 80.7406 73.3629C81.6437 73.314 82.5468 73.3274 83.4319 73.5897C84.1508 73.8032 84.7933 73.9677 85.575 73.4608C86.2849 73.0027 87.1296 73.3629 87.3947 74.2568C87.7137 75.3241 87.9653 76.427 88.1091 77.5299C88.2394 78.5127 87.3632 79.2687 86.3793 79.0286C85.3324 78.7706 84.2901 78.4371 83.2971 78.0191C82.084 77.5032 82.1559 76.5738 82.7624 75.5909Z" fill="#9F8A60"/>
</g>
<defs>
<clipPath id="clip0_63_1583">
<rect width="50.5155" height="50" fill="white" transform="translate(31.3335 31)"/>
</clipPath>
</defs>
</svg>
