<svg width="113" height="112" viewBox="0 0 113 112" fill="none" xmlns="http://www.w3.org/2000/svg">
<path d="M3 56C3 26.4528 26.9528 2.5 56.5 2.5C86.0472 2.5 110 26.4528 110 56C110 85.5472 86.0472 109.5 56.5 109.5C26.9528 109.5 3 85.5472 3 56Z" stroke="black" stroke-width="5"/>
<path d="M35.0202 53.6933C35.0202 47.7555 35.017 41.8146 35.0202 35.8769C35.0202 35.0201 35.1462 34.9004 35.9935 34.9035C42.5109 34.9035 49.0282 34.9319 55.5456 34.8846C56.626 34.8752 57.5017 35.0673 58.2231 35.9084C58.4719 36.1982 58.809 36.4092 59.0925 36.6707C59.3098 36.8691 59.5209 37.0392 59.839 37.0014C60.0028 36.9825 60.1288 37.0928 60.2517 37.1967C60.7368 37.622 61.2219 38.0409 61.7133 38.4599C62.0346 38.7308 62.3023 39.0836 62.7906 39.071C62.9575 39.0678 63.0835 39.2316 63.2095 39.3513C66.5013 42.4761 69.793 45.6009 73.0942 48.7131C73.4061 49.0061 73.5195 49.3179 73.5195 49.7369C73.5069 53.709 73.5132 57.6843 73.5006 61.6565C73.5006 61.9715 73.5888 62.1699 73.8471 62.3747C76.6443 64.5986 77.8791 67.5186 77.1735 71.0718C76.4458 74.7321 74.1432 76.9781 70.5679 77.8412C69.9159 77.9987 69.2449 78.005 68.5771 78.0018C62.3307 77.9986 56.0811 77.9955 49.8346 77.9955C47.1508 77.9955 44.467 78.0018 41.7832 78.0018C40.9264 78.0018 40.7752 77.8443 40.7752 76.9623C40.7752 76.2977 40.7658 75.633 40.7815 74.9684C40.7878 74.6912 40.7122 74.5841 40.4224 74.5935C39.8271 74.6124 39.2286 74.6061 38.6332 74.5998C38.1103 74.5935 37.9182 74.4014 37.8961 73.8659C37.8835 73.5194 37.8804 73.1729 37.893 72.8264C37.9024 72.5838 37.8142 72.4956 37.5717 72.5019C37.0047 72.5177 36.4345 72.5145 35.8675 72.5114C35.1777 72.5082 35.0107 72.3444 35.0107 71.642C35.0107 68.7818 35.0139 65.9184 35.0139 63.0582C35.0233 59.9366 35.0233 56.8149 35.0202 53.6933ZM72.1996 61.3698C72.2091 61.2564 72.2217 61.1745 72.2217 61.0895C72.2217 57.5205 72.2185 53.9516 72.2311 50.3795C72.2311 50.0298 72.0925 49.9826 71.8027 49.9826C68.8354 49.9889 65.8681 49.9857 62.8977 49.9889C62.148 49.9889 61.9779 49.8345 61.9779 49.0943C61.9747 46.3349 61.9653 43.5723 61.981 40.8129C61.9842 40.4129 61.8834 40.3089 61.4896 40.3121C55.1833 40.3247 48.877 40.3247 42.5739 40.3089C42.1612 40.3089 42.0604 40.416 42.0604 40.835C42.0762 46.253 42.0699 51.6741 42.0699 57.0921C42.0699 63.452 42.0699 69.8087 42.0573 76.1685C42.0573 76.5875 42.1675 76.7009 42.5802 76.6914C43.8307 76.6599 45.0781 76.6788 46.3287 76.6788C52.1656 76.6788 58.0026 76.6788 63.8395 76.6757C63.9844 76.6757 64.1325 76.6631 64.3372 76.6505C60.3241 73.8564 59.6343 68.8322 61.4581 65.3703C62.3464 63.6851 63.6222 62.403 65.32 61.5935C67.5628 60.5288 69.8623 60.5004 72.1996 61.3698ZM76.0773 69.4118C76.0773 65.2947 72.9115 62.0817 68.8575 62.0786C64.9294 62.0754 61.7227 65.3357 61.7227 69.3236C61.7227 73.4501 64.8727 76.6725 68.9205 76.682C72.8643 76.6946 76.0773 73.428 76.0773 69.4118ZM60.28 39.093C60.2926 39.0584 60.3021 39.0237 60.3147 38.9891C59.9493 38.7434 59.7414 38.2992 59.1838 38.2992C52.6633 38.3118 46.146 38.3118 39.6255 38.3055C39.301 38.3055 39.1876 38.3811 39.1876 38.7339C39.1971 42.9675 39.1908 47.2043 39.1908 51.4379C39.1908 56.7141 39.1908 61.9872 39.1908 67.2635C39.1908 69.144 39.2002 71.0214 39.1908 72.8988C39.1908 73.1981 39.2727 73.3146 39.5751 73.2894C39.8428 73.2674 40.1169 73.2642 40.3846 73.2894C40.6996 73.3209 40.7941 73.2107 40.791 72.8831C40.7815 66.3059 40.7847 59.7287 40.7847 53.1546C40.7847 48.7446 40.7847 44.3378 40.791 39.9278C40.791 39.2726 40.9894 39.0899 41.6415 39.0899C47.1099 39.0899 52.5783 39.0899 58.0467 39.0899C58.7869 39.093 59.5335 39.093 60.28 39.093ZM57.4041 36.8975C57.0261 36.6707 56.8623 36.2108 56.3299 36.2108C49.8409 36.2202 43.3519 36.2171 36.8629 36.2171C36.3085 36.2171 36.3054 36.2171 36.3085 36.7746C36.3117 40.7184 36.3148 44.6654 36.3148 48.6092C36.3148 55.8479 36.3148 63.0866 36.3148 70.3253C36.3148 71.201 36.318 71.201 37.1779 71.201C37.8993 71.2041 37.8993 71.2041 37.8993 70.4702C37.8961 60.6296 37.8961 50.789 37.893 40.9515C37.893 39.8963 37.8898 38.841 37.8993 37.7858C37.9024 37.2062 38.104 37.0109 38.6742 36.9983C38.775 36.9951 38.8726 36.9983 38.9734 36.9983C44.9647 37.0014 50.9592 37.0014 56.9505 37.0014C57.0796 37.0014 57.2277 37.0518 57.4041 36.8975ZM63.2631 41.1846C63.2631 43.6322 63.2725 45.9411 63.2536 48.2501C63.2505 48.6092 63.3733 48.6753 63.6915 48.6722C66.0193 48.6596 68.3472 48.6659 70.675 48.6627C70.8042 48.6627 70.9554 48.7289 71.0845 48.5619C68.5047 46.1301 65.9311 43.7015 63.2631 41.1846Z" fill="#A3895A"/>
<path d="M43.6102 50.9369C43.6102 48.7413 43.5944 46.5458 43.6165 44.3502C43.6354 42.3909 45.3584 41.0616 47.1098 41.6192C48.2218 41.972 49.0124 43.0304 49.0156 44.2652C49.0282 48.7287 49.0187 53.1891 49.0156 57.6527C49.0156 57.7787 48.9935 57.911 48.9589 58.0338C48.3068 60.3018 47.6516 62.5698 46.9964 64.8347C46.9807 64.8914 46.9712 64.9481 46.946 64.9985C46.8011 65.2662 46.5932 65.4678 46.2782 65.4552C45.9475 65.4426 45.7333 65.2505 45.6388 64.9197C44.9836 62.636 44.3252 60.3554 43.6763 58.0716C43.6228 57.8826 43.6165 57.6716 43.6165 57.4731C43.6102 55.2965 43.6102 53.1167 43.6102 50.9369ZM47.6642 51.7685H47.6674C47.6674 50.1084 47.6611 48.4452 47.6737 46.7852C47.6768 46.5017 47.6233 46.3725 47.3083 46.382C46.5995 46.4072 45.8876 46.404 45.1789 46.3851C44.908 46.382 44.845 46.4796 44.845 46.7348C44.8513 50.058 44.8513 53.3813 44.8387 56.7014C44.8387 57.0384 44.9521 57.114 45.2576 57.1077C45.9097 57.0888 46.5649 57.0857 47.2169 57.114C47.5603 57.1266 47.68 57.0447 47.6737 56.6667C47.6516 55.035 47.6642 53.4033 47.6642 51.7685ZM46.2499 45.0873C46.4483 45.0873 46.6468 45.0873 46.8452 45.0873C47.743 45.0873 47.743 45.0873 47.6611 44.1612C47.6044 43.5092 47.1382 42.9579 46.5523 42.8414C45.9097 42.7122 45.2797 43.0241 44.9867 43.6131C44.7757 44.0352 44.8607 44.4888 44.8544 44.933C44.8513 45.1062 44.9899 45.0873 45.1033 45.0873C45.4844 45.0905 45.8656 45.0905 46.2499 45.0873ZM46.2121 62.3619C46.2404 62.3556 46.2688 62.3525 46.2971 62.3462C46.6562 61.1334 47.009 59.9207 47.3776 58.7111C47.4563 58.4528 47.3524 58.4118 47.1382 58.4181C46.8137 58.4276 46.4861 58.4087 46.1585 58.4244C45.8215 58.437 45.349 58.2732 45.182 58.5C45.0182 58.7237 45.2954 59.1426 45.3868 59.4702C45.6514 60.4373 45.9349 61.398 46.2121 62.3619Z" fill="#A3895A"/>
<path d="M60.4249 54.5532C57.7568 54.5532 55.0856 54.55 52.4176 54.5563C52.0427 54.5563 51.734 54.4839 51.6584 54.0429C51.5765 53.5452 51.8474 53.2522 52.4081 53.2491C54.1249 53.2428 55.8448 53.2459 57.5615 53.2459C61.1399 53.2459 64.7183 53.2491 68.2967 53.2491C68.3975 53.2491 68.4952 53.2428 68.596 53.2522C68.9992 53.29 69.2386 53.5452 69.2291 53.9232C69.2197 54.2949 68.9677 54.55 68.5645 54.5532C67.484 54.5626 66.4067 54.5595 65.3263 54.5595C63.6914 54.5563 62.0566 54.5563 60.4249 54.5532Z" fill="#A3895A"/>
<path d="M60.4186 59.2468C57.7663 59.2468 55.1108 59.2468 52.4585 59.2499C52.0774 59.2499 51.7372 59.1995 51.6616 58.7302C51.5828 58.2356 51.8537 57.9458 52.4207 57.9427C53.6555 57.9332 54.8903 57.9427 56.1251 57.9427C60.1414 57.9427 64.1576 57.9427 68.1739 57.9458C68.3723 57.9458 68.5708 57.949 68.7629 57.9899C69.0968 58.0561 69.2291 58.3112 69.2165 58.6294C69.2039 58.9664 69.0307 59.209 68.6747 59.2405C68.4196 59.2625 68.1644 59.2594 67.9093 59.2594C65.4113 59.2594 62.9134 59.2594 60.4154 59.2594C60.4186 59.2531 60.4186 59.2499 60.4186 59.2468Z" fill="#A3895A"/>
<path d="M51.6553 67.4176C53.9139 67.4176 56.1693 67.4176 58.4278 67.4176C58.5979 67.4176 58.7712 67.4176 58.935 67.4585C59.2531 67.5373 59.4075 67.783 59.4012 68.098C59.3949 68.3909 59.2563 68.6272 58.9444 68.6933C58.8216 68.7185 58.6924 68.7374 58.5664 68.7374C53.9517 68.7374 49.3401 68.7374 44.7253 68.7343C44.5993 68.7343 44.4702 68.7248 44.3442 68.6933C44.0166 68.6146 43.8811 68.3783 43.8874 68.0539C43.8969 67.7294 44.0418 67.4837 44.3757 67.4459C44.7285 67.4081 45.0844 67.4081 45.4372 67.4081C47.5099 67.405 49.5826 67.4081 51.6553 67.4081C51.6553 67.4144 51.6553 67.4144 51.6553 67.4176Z" fill="#A3895A"/>
<path d="M51.6459 73.1792C49.3307 73.1792 47.0154 73.1792 44.7002 73.1792C44.13 73.1792 43.8528 72.9366 43.878 72.483C43.9001 72.0861 44.1363 71.8751 44.6025 71.8719C46.2783 71.8656 47.9541 71.8719 49.6299 71.8719C52.6256 71.8719 55.6244 71.8688 58.62 71.8719C59.1933 71.8719 59.4705 72.1586 59.3855 72.6374C59.3036 73.0973 58.976 73.1792 58.5917 73.1792C57.0734 73.1792 55.5519 73.1823 54.0336 73.1855C53.2398 73.1855 52.4429 73.1855 51.6491 73.1855C51.6459 73.1823 51.6459 73.1792 51.6459 73.1792Z" fill="#A3895A"/>
<path d="M56.6196 64.0191C55.2147 64.0191 53.8098 64.016 52.4081 64.0223C52.0427 64.0223 51.7592 63.9215 51.671 63.5246C51.567 63.0584 51.8316 62.7276 52.3545 62.715C53.1924 62.6961 54.0272 62.7087 54.8651 62.7087C56.837 62.7087 58.8089 62.7056 60.7808 62.7087C61.3068 62.7087 61.562 62.9261 61.5714 63.345C61.584 63.7986 61.3541 64.0128 60.8343 64.016C59.4294 64.0191 58.0245 64.016 56.6196 64.0191Z" fill="#A3895A"/>
<path d="M56.1095 48.5522C57.3443 48.5522 58.5791 48.5522 59.817 48.5522C60.3588 48.5522 60.6297 48.7759 60.6266 49.2106C60.6234 49.6327 60.362 49.8563 59.8454 49.8563C57.36 49.8595 54.8747 49.8626 52.3893 49.8595C51.9042 49.8595 51.6585 49.6358 51.6522 49.2169C51.6459 48.7696 51.879 48.5585 52.4051 48.5585C53.6367 48.5554 54.8715 48.5554 56.1095 48.5522C56.1095 48.5554 56.1095 48.5554 56.1095 48.5522Z" fill="#A3895A"/>
<path d="M56.122 45.1628C54.903 45.1628 53.6808 45.1597 52.4617 45.166C52.1593 45.166 51.8947 45.103 51.7309 44.8195C51.46 44.347 51.7561 43.8619 52.3389 43.8587C53.8288 43.8493 55.3188 43.8556 56.8087 43.8556C57.8293 43.8556 58.8531 43.8524 59.8737 43.8587C60.3777 43.8619 60.636 44.1044 60.6234 44.5297C60.6139 44.9297 60.3525 45.1597 59.8674 45.1628C58.6168 45.1723 57.3694 45.166 56.122 45.1628C56.122 45.166 56.122 45.166 56.122 45.1628Z" fill="#A3895A"/>
<path d="M74.1685 66.8601C74.137 67.1026 74.0362 67.3011 73.8598 67.4649C71.9005 69.3108 69.9443 71.1567 67.9819 72.9994C67.6165 73.3428 67.2196 73.3081 66.9235 72.8986C66.1549 71.8434 65.3989 70.7755 64.646 69.7077C64.4066 69.3675 64.457 68.9485 64.7279 68.7343C65.0177 68.5075 65.4335 68.5926 65.695 68.9485C66.2525 69.714 66.8132 70.4794 67.3456 71.2606C67.5251 71.5221 67.6228 71.4811 67.8181 71.2921C69.5065 69.6793 71.2043 68.0791 72.8927 66.4695C73.1794 66.1986 73.4755 66.0505 73.844 66.2805C74.0582 66.4128 74.1527 66.6144 74.1685 66.8601Z" fill="#A3895A"/>
</svg>
