<svg width="17" height="21" viewBox="0 0 17 21" fill="none" xmlns="http://www.w3.org/2000/svg">
<g clip-path="url(#clip0_63_1455)">
<path d="M13.2995 15.5988C13.6169 15.5411 13.9219 15.4352 14.2175 15.3004C14.6874 15.0822 15.1572 14.8672 15.624 14.6425C15.7734 14.5719 15.9134 14.5559 16.0441 14.6682C16.1717 14.7773 16.181 14.9185 16.1499 15.0758C15.9756 15.9582 15.8107 16.8472 15.6302 17.7296C15.5089 18.3233 15.1541 18.702 14.5878 18.8624C14.5038 18.8881 14.4664 18.9202 14.4509 19.0133C14.2424 20.1717 13.287 20.99 12.1326 20.9964C10.8878 21.0029 9.64001 20.9964 8.39529 20.9964C7.26571 20.9964 6.13613 20.9804 5.00965 20.9997C3.74937 21.0221 2.77849 20.0947 2.60423 18.9812C2.59489 18.9106 2.56066 18.8849 2.49843 18.8688C1.89474 18.702 1.53999 18.3008 1.41863 17.6687C1.25371 16.799 1.07945 15.9262 0.908297 15.0565C0.877179 14.9025 0.89585 14.7677 1.01721 14.665C1.14479 14.5591 1.28171 14.5687 1.42486 14.6361C2.0161 14.9025 2.59178 15.2073 3.19858 15.4416C3.38218 15.5122 3.56889 15.5667 3.77427 15.5956C3.73693 15.5058 3.66535 15.4608 3.61245 15.4031C2.97142 14.6714 2.66335 13.821 2.81272 12.8358C2.92163 12.1106 3.08967 11.3982 3.22037 10.6762C3.34484 9.99263 3.41952 9.30268 3.42263 8.60311C3.42263 7.82973 3.42263 7.05635 3.36662 6.28618C3.29816 5.31705 4.04811 4.65277 4.85095 4.66561C5.31772 4.67203 5.7876 4.66561 6.25748 4.66882C6.37885 4.66882 6.43486 4.64315 6.42552 4.50195C6.41308 4.25164 6.4193 3.99813 6.42552 3.74782C6.42552 3.66439 6.40685 3.61946 6.31661 3.60021C5.56355 3.42692 5.15591 2.90064 5.15591 2.10479C5.15591 1.87695 5.15591 1.64911 5.15591 1.42447C5.16524 0.641467 5.76271 0.00928502 6.51888 0.00607598C7.86006 -0.00355116 9.19814 -0.000342113 10.5393 0.00607598C11.2862 0.00928502 11.8836 0.628631 11.9023 1.3988C11.9085 1.67799 11.9085 1.96039 11.9023 2.23957C11.8836 2.91347 11.4262 3.46864 10.7852 3.597C10.67 3.61946 10.6296 3.66118 10.6358 3.78312C10.6451 4.0238 10.6451 4.26769 10.6358 4.50837C10.6327 4.63352 10.6669 4.67524 10.7914 4.67524C11.2644 4.66882 11.7374 4.66882 12.2104 4.67524C12.8203 4.68486 13.2808 4.95443 13.564 5.51922C13.6574 5.70534 13.6978 5.90751 13.6916 6.12252C13.6729 6.95687 13.6325 7.79122 13.6387 8.62878C13.6449 9.52411 13.7756 10.4066 13.953 11.2827C14.0619 11.8122 14.1832 12.3384 14.2517 12.8744C14.3824 13.8884 14.0619 14.7581 13.3742 15.4865C13.3462 15.5154 13.3057 15.5379 13.2715 15.5603C13.2808 15.5764 13.2902 15.5892 13.2995 15.6053V15.5988ZM8.5291 5.3716C8.02188 5.3716 7.51777 5.3716 7.01054 5.3716C6.30416 5.3716 5.59467 5.37802 4.88829 5.3716C4.47131 5.36839 4.00454 5.65079 4.05122 6.24767C4.09167 6.78679 4.08545 7.32912 4.10101 7.86824C4.11657 8.40415 4.10723 8.94006 4.06989 9.47597C4.00765 10.3649 3.8085 11.2313 3.64668 12.1042C3.58445 12.4411 3.4942 12.7749 3.46931 13.115C3.38529 14.1869 4.07611 15.2202 5.14968 15.6245C5.17147 15.6341 5.19636 15.6405 5.21814 15.6405C5.26482 15.6405 5.32394 15.6502 5.35195 15.6117C5.38929 15.5635 5.33017 15.525 5.30527 15.4897C4.93808 14.9121 4.77627 14.2767 4.81361 13.5932C4.88518 12.2967 4.96609 11.0003 5.04388 9.70381C5.09056 8.94648 5.1279 8.18914 5.18391 7.43502C5.23059 6.80604 5.6818 6.33431 6.22948 6.33111C7.76049 6.3279 9.29149 6.33111 10.8256 6.33111C11.1026 6.33111 11.3359 6.44021 11.5289 6.64238C11.7716 6.8959 11.8681 7.21359 11.8898 7.56017C11.9676 8.85021 12.0486 10.1435 12.1232 11.4335C12.1668 12.1363 12.2073 12.8423 12.2477 13.545C12.285 14.2414 12.1326 14.8864 11.7654 15.4737C11.7405 15.5154 11.672 15.5603 11.7094 15.6085C11.7467 15.6566 11.8214 15.647 11.8805 15.6341C11.9085 15.6277 11.9334 15.6149 11.9614 15.6053C12.2228 15.4961 12.4686 15.3582 12.6865 15.1688C13.3213 14.6169 13.6667 13.9205 13.5827 13.0573C13.5298 12.531 13.4053 12.0111 13.2933 11.4945C13.0412 10.3135 12.9136 9.12298 12.9541 7.91637C12.9759 7.31307 12.9852 6.70977 13.0008 6.10647C13.0039 5.95886 12.9603 5.83049 12.8794 5.71497C12.6989 5.46466 12.4469 5.37481 12.1544 5.37481C10.947 5.37481 9.73648 5.37481 8.5291 5.37481V5.3716ZM1.73604 15.5667C1.70492 15.6309 1.72981 15.6823 1.73604 15.7304C1.85117 16.3273 1.96942 16.921 2.08456 17.5178C2.17169 17.9767 2.43619 18.2014 2.8874 18.2014C6.64646 18.2014 10.4086 18.2014 14.1677 18.2014C14.6158 18.2014 14.8772 17.9767 14.9643 17.5307C15.0546 17.0622 15.151 16.5936 15.2381 16.1251C15.2724 15.9422 15.3253 15.7625 15.3346 15.5539C15.0577 15.6823 14.7994 15.801 14.5411 15.9229C13.5858 16.3722 12.59 16.5102 11.5538 16.3144C10.9999 16.2118 10.4771 15.9903 9.94497 15.8042C9.2417 15.5603 8.5291 15.4929 7.80094 15.6181C7.27504 15.7079 6.78649 15.9165 6.28549 16.093C4.97853 16.5551 3.7027 16.4909 2.44864 15.8909C2.21214 15.7785 1.97253 15.6694 1.73292 15.5603L1.73604 15.5667ZM8.52599 12.2454C9.46264 12.2454 10.3993 12.2454 11.3359 12.2454C11.4417 12.2454 11.4822 12.2261 11.476 12.101C11.4262 11.3982 11.3826 10.6954 11.3453 9.99263C11.3391 9.88352 11.3111 9.8418 11.199 9.84501C10.8381 9.85143 10.4771 9.84501 10.1192 9.84501C8.70647 9.84501 7.29372 9.84501 5.87785 9.84501C5.75648 9.84501 5.72226 9.88031 5.71603 10.0055C5.67869 10.6986 5.63824 11.3918 5.58845 12.0849C5.57911 12.2197 5.61645 12.2454 5.73781 12.2454C6.66824 12.2422 7.60178 12.2454 8.53221 12.2454H8.52599ZM8.53221 12.9578C7.58311 12.9578 6.6309 12.9578 5.6818 12.9578C5.56978 12.9578 5.5231 12.9899 5.5231 13.1086C5.5231 13.2723 5.50132 13.4359 5.49509 13.5996C5.47642 14.2286 5.62268 14.803 6.0241 15.294C6.09256 15.3774 6.1548 15.4063 6.2606 15.3614C6.47842 15.2715 6.70247 15.2009 6.92341 15.1271C7.73248 14.8479 8.56022 14.7805 9.40352 14.9346C9.88274 15.0212 10.3308 15.2009 10.7852 15.3614C10.8972 15.3999 10.9625 15.3806 11.0341 15.2908C11.2021 15.079 11.3297 14.8479 11.4231 14.5912C11.5973 14.1098 11.5662 13.6156 11.5351 13.1182C11.5289 12.9931 11.4915 12.9578 11.3702 12.9578C10.4242 12.9642 9.4782 12.9578 8.53221 12.9578ZM8.54155 18.9074C6.8425 18.9074 5.14035 18.9074 3.4413 18.9074C3.27949 18.9074 3.27949 18.9074 3.32306 19.0678C3.54711 19.8348 4.26593 20.3418 5.05011 20.2937C5.13101 20.2872 5.15591 20.2584 5.1528 20.1813C5.14968 19.9984 5.1528 19.8155 5.1528 19.6294C5.1528 19.3983 5.2866 19.2539 5.48887 19.2507C5.69425 19.2507 5.82806 19.3887 5.83739 19.6198C5.84362 19.7898 5.84673 19.9599 5.83739 20.1268C5.83117 20.2584 5.87162 20.2969 6.00232 20.2969C7.552 20.2937 9.10167 20.2969 10.6545 20.2969C10.8101 20.2969 10.9625 20.2969 11.1181 20.2969C11.1959 20.2969 11.227 20.268 11.2239 20.1878C11.2239 19.9984 11.2239 19.8123 11.2239 19.623C11.227 19.4016 11.3608 19.2604 11.5569 19.2539C11.7623 19.2507 11.8992 19.3919 11.9054 19.6198C11.9085 19.8091 11.9085 19.9952 11.9054 20.1846C11.9054 20.2648 11.9334 20.2905 12.0112 20.2969C12.7798 20.3418 13.4862 19.8572 13.7258 19.1127C13.788 18.917 13.788 18.9138 13.5889 18.9138C11.9085 18.9138 10.225 18.9138 8.54466 18.9138L8.54155 18.9074ZM8.51354 2.92631C9.16391 2.92631 9.81428 2.92631 10.4646 2.92631C10.9127 2.92631 11.2115 2.61824 11.2208 2.15614C11.2239 1.92829 11.2239 1.70366 11.2208 1.47582C11.2115 1.02013 10.919 0.712066 10.4771 0.708857C9.17947 0.705648 7.88496 0.705648 6.58734 0.708857C6.13612 0.708857 5.84673 1.01693 5.8405 1.48545C5.8405 1.69403 5.8405 1.89941 5.8405 2.108C5.8405 2.62787 6.1299 2.92631 6.63401 2.92631C7.2626 2.92631 7.88807 2.92631 8.51665 2.92631H8.51354ZM8.51354 9.13581C9.38796 9.13581 10.2655 9.13581 11.1399 9.13581C11.2582 9.13581 11.2924 9.10372 11.283 8.98178C11.255 8.62557 11.2426 8.26937 11.2146 7.91317C11.199 7.73667 11.2146 7.55375 11.1648 7.38046C11.0995 7.14941 10.9719 7.0371 10.7727 7.0371C9.27282 7.0371 7.77604 7.0371 6.27616 7.0371C6.12679 7.0371 6.02721 7.10449 5.95253 7.22643C5.89029 7.33233 5.86229 7.44785 5.85295 7.5698C5.82494 8.04153 5.80005 8.51326 5.76582 8.98499C5.75648 9.11014 5.79694 9.13902 5.91208 9.13902C6.77716 9.13581 7.64535 9.13902 8.51043 9.13902L8.51354 9.13581ZM8.51354 4.66561C8.95231 4.66561 9.39418 4.66561 9.83295 4.66561C9.92008 4.66561 9.96053 4.63994 9.95742 4.54367C9.95431 4.27732 9.95431 4.01417 9.95742 3.74782C9.95742 3.66118 9.93252 3.62588 9.84539 3.62588C8.97098 3.62588 8.09656 3.62588 7.22214 3.62588C7.12568 3.62588 7.1039 3.6676 7.10701 3.75745C7.11012 4.01417 7.11323 4.26769 7.10701 4.52441C7.1039 4.64315 7.14746 4.66882 7.25326 4.66561C7.67336 4.65919 8.09656 4.66561 8.51665 4.66561H8.51354Z" fill="#B49758"/>
</g>
<defs>
<clipPath id="clip0_63_1455">
<rect width="15.2727" height="21" fill="white" transform="translate(0.893066)"/>
</clipPath>
</defs>
</svg>
