<svg width="113" height="112" viewBox="0 0 113 112" fill="none" xmlns="http://www.w3.org/2000/svg">
<path d="M3.1665 56C3.1665 26.4528 27.1193 2.5 56.6665 2.5C86.2137 2.5 110.167 26.4528 110.167 56C110.167 85.5472 86.2137 109.5 56.6665 109.5C27.1193 109.5 3.1665 85.5472 3.1665 56Z" stroke="black" stroke-width="5"/>
<path d="M65.7452 70.2875C66.2145 71.5695 66.057 72.7445 65.0648 73.7052C64.041 74.6943 62.8345 74.8014 61.5367 74.2439C61.4958 74.5368 61.4454 74.8203 61.3383 75.0944C60.5414 77.1324 57.9206 77.6931 56.3582 76.1559C56.1786 75.9795 56.0022 75.7937 55.8038 75.5952C55.7691 75.7464 55.7439 75.8661 55.7124 75.9858C55.1139 78.2129 52.2915 78.9783 50.6441 77.3592C50.4551 77.1734 50.266 76.9875 50.0833 76.7954C50.0235 76.7324 49.9825 76.7324 49.9069 76.7765C48.6406 77.5104 47.1916 77.0001 46.675 75.6362C46.6246 75.507 46.5742 75.5574 46.5049 75.5921C45.2292 76.2063 43.7455 75.5133 43.4085 74.1399C43.3045 73.7178 43.3234 73.2957 43.4778 72.8894C43.5156 72.7854 43.4872 72.7571 43.3927 72.7287C42.2052 72.3539 41.5815 71.1758 41.9374 69.9788C41.9689 69.8748 41.9469 69.8496 41.8492 69.8181C40.6901 69.4685 40.0538 68.366 40.3183 67.1816C40.3309 67.1249 40.353 67.0713 40.2994 67.0209C40.0663 66.791 39.8364 66.5579 39.5844 66.3027C39.5308 66.4823 39.4867 66.6303 39.4426 66.7815C39.1465 67.7895 38.1417 68.3502 37.1337 68.0699C35.2469 67.5438 33.3569 67.0209 31.47 66.4917C30.4305 66.2019 29.8666 65.1939 30.1659 64.1576C31.5645 59.3034 32.9662 54.4461 34.3649 49.592C34.431 49.362 34.4972 49.1352 34.5633 48.9053C34.8657 47.8626 35.8548 47.3114 36.9006 47.6012C38.5638 48.0642 40.227 48.5273 41.8902 48.9903C42.1044 49.0502 42.3186 49.11 42.5328 49.1699C43.4872 49.4408 44.029 50.2629 43.903 51.2489C43.8999 51.2804 43.903 51.3119 43.903 51.3591C44.2464 51.3056 44.5803 51.2489 44.9205 51.1985C45.8686 51.0536 46.8231 50.9591 47.7807 50.8929C48.0988 50.8709 48.417 50.8488 48.7351 50.8394C48.8737 50.8362 48.8832 50.8047 48.817 50.6882C48.2469 49.6896 47.809 48.6375 47.4972 47.5287C47.1444 46.275 46.9743 44.9961 46.968 43.6983C46.9617 41.906 46.9648 40.1105 46.968 38.3181C46.968 37.9149 47.0877 37.7417 47.4625 37.5968C50.3227 36.4848 53.1798 35.376 56.0368 34.2641C56.2479 34.1822 56.4432 34.1822 56.6511 34.2641C59.5239 35.3855 62.3967 36.5006 65.2695 37.6188C65.5908 37.7448 65.7168 37.9275 65.7168 38.274C65.7168 40.1262 65.7326 41.9784 65.7136 43.8275C65.6884 46.6058 64.9136 49.1667 63.3826 51.4914C63.307 51.608 63.3228 51.6458 63.4425 51.7056C64.1103 52.0269 64.7561 52.3955 65.3703 52.8113C65.4365 52.8554 65.4868 52.8585 65.5593 52.8302C66.6082 52.3734 67.6603 51.9198 68.7093 51.4694C68.7975 51.4316 68.8038 51.3875 68.7912 51.3024C68.6463 50.2661 69.1881 49.4408 70.1993 49.1604C72.0515 48.6438 73.9037 48.1304 75.7559 47.6169C76.8584 47.3114 77.8254 47.8595 78.1436 48.9683C79.3311 53.0916 80.5218 57.2118 81.7094 61.3352C81.9803 62.277 82.2543 63.2189 82.5252 64.1607C82.8244 65.2065 82.2575 66.2082 81.2085 66.5012C79.3217 67.0272 77.4348 67.5533 75.5448 68.0793C74.5715 68.3502 73.595 67.8305 73.2737 66.8697C73.2421 66.7752 73.2233 66.7248 73.1067 66.791C71.6987 67.5627 70.1804 67.9848 68.5928 68.1801C68.514 68.1896 68.4604 68.199 68.4258 68.2872C67.9533 69.459 67.0902 70.1237 65.8334 70.278C65.805 70.2749 65.7767 70.2812 65.7452 70.2875ZM49.5573 52.008C49.4628 52.008 49.4093 52.0049 49.3589 52.008C48.543 52.0364 47.7271 52.0868 46.9144 52.1624C45.8151 52.2663 44.7252 52.4112 43.6447 52.6317C43.5439 52.6506 43.5061 52.6947 43.4809 52.7892C43.2478 53.6145 43.0053 54.4367 42.769 55.262C41.8461 58.4592 40.9263 61.6533 40.0034 64.8506C39.975 64.9482 39.9813 65.0112 40.0601 65.0868C40.3436 65.3577 40.6239 65.6349 40.8916 65.9216C40.9987 66.035 41.0523 66.0129 41.1499 65.9153C41.6949 65.364 42.2398 64.8159 42.7911 64.271C43.2447 63.8237 43.8022 63.6032 44.4354 63.6441C45.6198 63.7166 46.4545 64.5797 46.5175 65.7672C46.5238 65.8649 46.5522 65.8869 46.6467 65.8932C47.8594 65.9625 48.7036 66.8099 48.7729 68.0258C48.7792 68.1077 48.7918 68.1486 48.8864 68.1486C49.9636 68.1549 50.9748 69.0086 51.0252 70.2654C51.0284 70.3725 51.0693 70.4009 51.1638 70.4009C51.4473 70.4009 51.7214 70.467 51.9797 70.5867C53.3846 71.2262 53.7185 73.0311 52.6317 74.1399C52.0836 74.7006 51.5229 75.2519 50.9654 75.8031C50.8929 75.8724 50.8803 75.9134 50.9622 75.989C51.1449 76.1591 51.315 76.3418 51.4946 76.515C52.1781 77.1765 53.268 77.2049 53.9862 76.5812C54.78 75.8913 54.8398 74.6975 54.1216 73.9257C53.9799 73.7745 53.8886 73.6076 53.9138 73.3997C53.9421 73.1603 54.0744 72.9839 54.3043 72.902C54.5469 72.8138 54.7642 72.8705 54.947 73.0532C55.6903 73.7966 56.4306 74.5431 57.1772 75.2802C57.9269 76.0236 59.0798 76.0331 59.8074 75.3117C60.5382 74.5904 60.535 73.4312 59.7948 72.6846C58.7868 71.6672 57.7725 70.656 56.7582 69.6449C56.2542 69.1409 55.7502 68.6432 55.2525 68.136C54.947 67.8242 55.0257 67.3422 55.4037 67.1627C55.6557 67.043 55.9077 67.0997 56.1376 67.3296C57.9709 69.1629 59.8043 70.9994 61.6407 72.8327C62.3746 73.5666 63.5338 73.5698 64.2584 72.8484C64.986 72.1271 64.9797 70.9553 64.2458 70.2182C63.0991 69.0684 61.9494 67.9218 60.8028 66.7752C60.113 66.0854 59.4231 65.3924 58.7301 64.7057C58.5632 64.5387 58.4812 64.3497 58.5316 64.1166C58.5821 63.893 58.7207 63.7386 58.9443 63.6725C59.1774 63.6032 59.3853 63.6662 59.5554 63.8363C60.0972 64.3749 60.6358 64.9167 61.1777 65.4554C62.214 66.4917 63.2472 67.5281 64.2867 68.5581C64.7309 68.9991 65.279 69.1692 65.8932 69.059C66.6177 68.9298 67.1122 68.4983 67.3359 67.7958C67.5658 67.0713 67.38 66.4319 66.8477 65.8995C63.9339 62.9826 61.0201 60.0689 58.1032 57.1551C57.0039 56.0558 55.4069 56.0936 54.3516 57.2402C53.4759 58.1915 52.6065 59.1522 51.7182 60.0941C50.915 60.9477 49.9101 61.2879 48.7603 61.1052C46.5144 60.7493 45.2985 58.3206 46.338 56.3015C46.6876 55.6211 47.0908 54.9722 47.5318 54.3485C48.1114 53.5074 48.7698 52.7325 49.5573 52.008ZM55.5297 50.7638C55.1045 50.7575 54.6824 50.8016 54.2634 50.8772C52.8365 51.1386 51.6143 51.8064 50.5307 52.7514C49.2014 53.9106 48.2028 55.325 47.3806 56.8748C47.22 57.1803 47.1444 57.5111 47.1507 57.8544C47.1664 58.7238 47.7177 59.5082 48.5178 59.8074C49.3463 60.1193 50.2503 59.9082 50.8488 59.2593C51.7339 58.3017 52.6191 57.341 53.5011 56.3802C54.9438 54.8052 57.3725 54.7359 58.8876 56.2479C61.836 59.1869 64.7781 62.1353 67.7202 65.0805C68.1423 65.5026 68.4227 66.0066 68.5455 66.5957C68.5707 66.7154 68.5581 66.8823 68.6306 66.9359C68.7156 67.002 68.8731 66.9264 68.9959 66.9075C70.3126 66.687 71.5695 66.2964 72.735 65.6286C72.8484 65.5625 72.883 65.5058 72.8452 65.3703C71.6262 61.1588 70.4135 56.9441 69.2038 52.7294C69.1629 52.5908 69.1156 52.5939 68.9991 52.6443C67.9029 53.1231 66.8004 53.5956 65.7042 54.0744C65.4459 54.1878 65.216 54.1626 64.9892 53.9988C64.5072 53.6492 64 53.3436 63.474 53.0633C61.8108 52.1813 60.0468 51.5765 58.2167 51.1544C57.3315 50.9433 56.4432 50.7669 55.5297 50.7638ZM42.7281 50.9591C42.7281 50.6535 42.5391 50.411 42.2272 50.3228C40.3404 49.7967 38.4504 49.2707 36.5635 48.7478C36.1666 48.6375 35.8328 48.8297 35.7162 49.2297C35.5272 49.8818 35.3382 50.5307 35.1492 51.1827C33.8735 55.6053 32.6009 60.0279 31.3251 64.4474C31.1991 64.8884 31.3818 65.2191 31.8165 65.342C33.6844 65.8617 35.5524 66.3815 37.4172 66.9012C37.8487 67.0209 38.1764 66.8382 38.2992 66.4098C38.4536 65.8806 38.6047 65.3514 38.7591 64.8222C40.0475 60.3492 41.3389 55.8762 42.6273 51.4032C42.6682 51.2615 42.7312 51.1166 42.7281 50.9591ZM81.407 64.6584C81.4007 64.6269 81.3912 64.5513 81.3723 64.482C79.9139 59.4137 78.4523 54.3453 76.9907 49.277C76.8552 48.8045 76.5434 48.6281 76.0709 48.7604C74.225 49.2738 72.3759 49.7873 70.53 50.3039C70.048 50.4393 69.8748 50.7575 70.0134 51.2363C70.1898 51.8474 70.3662 52.4585 70.5426 53.0664C71.8215 57.4985 73.0973 61.9305 74.3762 66.3626C74.5179 66.8571 74.8298 67.0241 75.3337 66.8855C76.3795 66.5925 77.4254 66.3027 78.4711 66.0129C79.2775 65.7893 80.0839 65.5656 80.8903 65.3388C81.2148 65.2506 81.407 65.0112 81.407 64.6584ZM61.4926 42.4635C61.4926 42.0131 61.4895 41.4303 61.4958 40.8476C61.4958 40.7279 61.458 40.6743 61.3446 40.6302C59.7255 40.0034 58.1064 39.3734 56.4873 38.7402C56.3865 38.6993 56.2983 38.7024 56.1975 38.7434C54.5879 39.3702 52.9813 39.9971 51.3685 40.6176C51.2268 40.6712 51.1922 40.7436 51.1953 40.8854C51.2016 41.5532 51.1985 42.221 51.1985 42.8919C51.1985 43.5597 51.1953 44.2275 51.2772 44.8922C51.504 46.6845 52.1655 48.2942 53.2554 49.7337C53.3279 49.8282 53.3909 49.8471 53.5074 49.8188C54.4682 49.5731 55.4415 49.5069 56.4243 49.6172C57.278 49.7148 58.119 49.8818 58.9538 50.0928C59.0388 50.1149 59.1112 50.1369 59.19 50.0424C60.4153 48.5493 61.1588 46.8515 61.4076 44.9363C61.5084 44.1551 61.4895 43.3739 61.4926 42.4635ZM64.5261 41.8808C64.5261 40.731 64.5229 39.7514 64.5293 38.7686C64.5293 38.6489 64.4977 38.5922 64.3843 38.5481C61.7509 37.5275 59.1207 36.5069 56.4904 35.48C56.3897 35.4422 56.3046 35.439 56.2038 35.4768C53.5735 36.5006 50.9433 37.5243 48.3099 38.5449C48.1996 38.589 48.1618 38.6426 48.1618 38.7623C48.165 40.353 48.165 41.9438 48.165 43.5377C48.165 43.9787 48.1839 44.4165 48.2217 44.8575C48.4012 46.8483 49.0155 48.6942 50.0329 50.4173C50.2031 50.7039 50.3763 50.8236 50.7134 50.8047C51.0157 50.789 51.293 50.7606 51.5513 50.5842C51.6898 50.4897 51.8474 50.4173 52.0049 50.3543C52.1466 50.2976 52.1498 50.2472 52.0616 50.1243C50.7512 48.2658 50.055 46.1994 50.0077 43.9283C49.9825 42.7155 50.0014 41.4996 50.0046 40.2837C50.0046 40.0002 50.1463 39.8081 50.433 39.6947C52.3072 38.9639 54.1847 38.2362 56.062 37.5054C56.2479 37.433 56.4306 37.4298 56.6196 37.5054C58.4907 38.2331 60.3618 38.9607 62.2329 39.6884C62.5574 39.8144 62.6802 39.9971 62.6802 40.3404C62.6802 41.4713 62.6802 42.599 62.6802 43.7298C62.6802 44.5929 62.5763 45.4434 62.3746 46.2813C62.0187 47.765 61.3824 49.1163 60.4689 50.3385C60.365 50.4803 60.365 50.4803 60.535 50.5338C61.0485 50.6976 61.5588 50.8772 62.0597 51.0819C62.1479 51.1197 62.1982 51.1103 62.2549 51.0284C63.5905 49.0691 64.3403 46.9082 64.4977 44.5425C64.5576 43.6038 64.5104 42.6588 64.5261 41.8808ZM49.825 70.3158C49.8156 70.0103 49.6927 69.7488 49.4471 69.5535C49.0501 69.2385 48.5052 69.2669 48.143 69.626C47.0436 70.719 45.9505 71.8152 44.8543 72.9114C44.4448 73.3209 44.4354 73.9257 44.826 74.3226C45.2134 74.7195 45.8308 74.7321 46.2372 74.3258C47.3491 73.2233 48.4516 72.1145 49.5541 71.0025C49.74 70.8198 49.8219 70.5867 49.825 70.3158ZM43.9345 71.6231C44.2873 71.6262 44.5204 71.538 44.7094 71.349C45.5725 70.4891 46.4388 69.6291 47.2956 68.7597C47.6736 68.3754 47.6578 67.758 47.283 67.38C46.905 67.002 46.2876 66.98 45.9033 67.3548C45.0276 68.2116 44.1613 69.0779 43.3014 69.9536C43.0021 70.2591 42.9423 70.6371 43.1124 71.0309C43.2856 71.4183 43.6006 71.6073 43.9345 71.6231ZM48.6816 75.9165C49.0375 75.9165 49.2801 75.7937 49.488 75.5858C50.2251 74.8455 50.9653 74.1084 51.7024 73.3713C51.7717 73.2989 51.8442 73.2264 51.9009 73.1445C52.1876 72.7319 52.1151 72.1649 51.7371 71.8341C51.3654 71.5065 50.7795 71.5002 50.4299 71.8436C49.6172 72.6437 48.8107 73.4469 48.0138 74.2628C47.7208 74.562 47.6673 74.9369 47.8374 75.3243C48.0075 75.7086 48.3225 75.8976 48.6816 75.9165ZM44.3913 64.8348C44.0794 64.8348 43.8463 64.9136 43.6605 65.0931C43.0053 65.742 42.3469 66.3878 41.7043 67.0493C41.3358 67.4273 41.3641 68.0384 41.739 68.4132C42.1075 68.7818 42.7186 68.8101 43.0903 68.451C43.7581 67.8021 44.4196 67.1438 45.0685 66.4728C45.3552 66.1767 45.3961 65.8019 45.2292 65.4239C45.0623 65.0459 44.7504 64.86 44.3913 64.8348Z" fill="#A3895A"/>
<path d="M40.4099 52.9595C40.4067 54.0714 39.5122 54.9692 38.4065 54.9629C37.304 54.9566 36.4062 54.062 36.4062 52.9689C36.4062 51.8381 37.2977 50.9529 38.4286 50.9561C39.5248 50.9561 40.4099 51.8538 40.4099 52.9595ZM38.4033 53.7596C38.8507 53.7596 39.2161 53.3973 39.2161 52.9532C39.2161 52.5153 38.8412 52.1405 38.4033 52.1436C37.9718 52.1468 37.6033 52.5122 37.6001 52.9469C37.5938 53.391 37.9592 53.7596 38.4033 53.7596Z" fill="#A3895A"/>
<path d="M74.2376 50.9526C75.3495 50.9526 76.2441 51.8409 76.2441 52.9497C76.2441 54.0585 75.3527 54.9563 74.247 54.9594C73.1414 54.9626 72.2405 54.0585 72.2373 52.9403C72.231 51.8472 73.1319 50.9526 74.2376 50.9526ZM74.2376 53.7593C74.688 53.7593 75.0471 53.4033 75.044 52.9529C75.044 52.5087 74.6723 52.137 74.2344 52.1433C73.7966 52.1496 73.4375 52.5119 73.4343 52.9466C73.4343 53.397 73.7903 53.7593 74.2376 53.7593Z" fill="#A3895A"/>
<path d="M55.1897 47.582C55.007 47.5789 54.859 47.5159 54.7393 47.393C54.1912 46.8449 53.6431 46.3 53.0981 45.7487C52.8524 45.4999 52.8556 45.1282 53.0981 44.8919C53.3344 44.6588 53.6966 44.6588 53.9423 44.9014C54.3172 45.2699 54.6889 45.6385 55.0543 46.0165C55.1519 46.1173 55.2023 46.1173 55.3 46.0165C56.434 44.8762 57.5711 43.739 58.7083 42.605C58.9571 42.3562 59.2753 42.3152 59.5273 42.4948C59.8391 42.7184 59.8675 43.1374 59.584 43.424C59.0012 44.0099 58.4153 44.5958 57.8294 45.1817C57.1018 45.9094 56.3741 46.637 55.6465 47.3647C55.5142 47.497 55.3661 47.5789 55.1897 47.582Z" fill="#A3895A"/>
</svg>
